<mxfile host="app.diagrams.net" modified="2023-12-31T08:33:31.194Z" agent="Mozilla/5.0 (Windows NT 10.0; Win64; x64; rv:121.0) Gecko/20100101 Firefox/121.0" etag="7L0MhY6ys6QaW9iC7_nf" version="22.1.16" type="github" pages="20">
  <diagram id="IU4QbEFLuFTPxfrVKN8U" name="مشاهده‌ پادکست‌ها">
    <mxGraphModel dx="1434" dy="820" grid="0" gridSize="10" guides="1" tooltips="1" connect="1" arrows="1" fold="1" page="1" pageScale="1" pageWidth="1100" pageHeight="850" background="#ffffff" math="0" shadow="1">
      <root>
        <mxCell id="0" />
        <mxCell id="1" parent="0" />
        <mxCell id="fRlkpIGkXxRSBx7-r7FQ-1" value="&lt;font style=&quot;font-size: 30px;&quot; color=&quot;#ff2e9d&quot; face=&quot;Tahoma&quot;&gt;مشاهده‌ پادکست‌ها&lt;/font&gt;&lt;font style=&quot;font-size: 30px;&quot; color=&quot;#ff2e9d&quot; face=&quot;Tahoma&quot;&gt;&lt;br&gt;&lt;/font&gt;" style="text;html=1;align=center;verticalAlign=middle;resizable=0;points=[];autosize=1;strokeColor=none;fillColor=none;" parent="1" vertex="1">
          <mxGeometry x="46" y="31" width="269" height="48" as="geometry" />
        </mxCell>
      </root>
    </mxGraphModel>
  </diagram>
  <diagram id="ZDBqAYVeI_48zrZOUiyA" name="پیشنهاد برای پادکست">
    <mxGraphModel dx="1434" dy="791" grid="0" gridSize="10" guides="1" tooltips="1" connect="1" arrows="1" fold="1" page="1" pageScale="1" pageWidth="850" pageHeight="1100" math="0" shadow="1">
      <root>
        <mxCell id="0" />
        <mxCell id="1" parent="0" />
        <mxCell id="JATJTO45TWQIetT0YQGL-1" value="&lt;font style=&quot;font-size: 30px;&quot; color=&quot;#ff2e9d&quot; face=&quot;Tahoma&quot;&gt;پیشنهاد برای پادکست&lt;/font&gt;" style="text;html=1;align=center;verticalAlign=middle;resizable=0;points=[];autosize=1;strokeColor=none;fillColor=none;" parent="1" vertex="1">
          <mxGeometry x="24" y="30" width="297" height="48" as="geometry" />
        </mxCell>
      </root>
    </mxGraphModel>
  </diagram>
  <diagram id="vHkUNZTKIWTCjWEhAPmg" name="مشاهده مجله">
    <mxGraphModel dx="1434" dy="820" grid="0" gridSize="10" guides="1" tooltips="1" connect="1" arrows="1" fold="1" page="1" pageScale="1" pageWidth="850" pageHeight="1100" math="0" shadow="1">
      <root>
        <mxCell id="0" />
        <mxCell id="1" parent="0" />
        <mxCell id="ykVEajZ85HmUvy7bVwkM-1" value="" style="ellipse;html=1;shape=startState;fillColor=#000000;strokeColor=#ff0000;" parent="1" vertex="1">
          <mxGeometry x="398.12" y="20" width="30" height="30" as="geometry" />
        </mxCell>
        <mxCell id="ykVEajZ85HmUvy7bVwkM-2" style="edgeStyle=orthogonalEdgeStyle;rounded=0;orthogonalLoop=1;jettySize=auto;html=1;entryX=0.5;entryY=0;entryDx=0;entryDy=0;" parent="1" source="ykVEajZ85HmUvy7bVwkM-3" target="ykVEajZ85HmUvy7bVwkM-5" edge="1">
          <mxGeometry relative="1" as="geometry" />
        </mxCell>
        <mxCell id="ykVEajZ85HmUvy7bVwkM-3" value="" style="ellipse;html=1;shape=startState;fillColor=#000000;strokeColor=#ff0000;" parent="1" vertex="1">
          <mxGeometry x="398.12" y="20" width="30" height="30" as="geometry" />
        </mxCell>
        <mxCell id="ykVEajZ85HmUvy7bVwkM-4" style="edgeStyle=orthogonalEdgeStyle;rounded=0;orthogonalLoop=1;jettySize=auto;html=1;entryX=0.5;entryY=0;entryDx=0;entryDy=0;" parent="1" source="ykVEajZ85HmUvy7bVwkM-5" target="ykVEajZ85HmUvy7bVwkM-6" edge="1">
          <mxGeometry relative="1" as="geometry" />
        </mxCell>
        <mxCell id="ykVEajZ85HmUvy7bVwkM-5" value="انتخاب گزینه مجلات هفتگی" style="rounded=1;whiteSpace=wrap;html=1;fillColor=#fff2cc;strokeColor=#d6b656;" parent="1" vertex="1">
          <mxGeometry x="353.12" y="105" width="120" height="60" as="geometry" />
        </mxCell>
        <mxCell id="ykVEajZ85HmUvy7bVwkM-6" value="مشاهده مشاهده اخرین مجله هفتگی" style="rounded=1;whiteSpace=wrap;html=1;fillColor=#fff2cc;strokeColor=#d6b656;" parent="1" vertex="1">
          <mxGeometry x="353.12" y="214" width="120" height="60" as="geometry" />
        </mxCell>
        <mxCell id="6HGDcnAOjzogvF6U0O8i-1" value="" style="edgeStyle=orthogonalEdgeStyle;rounded=0;orthogonalLoop=1;jettySize=auto;html=1;" edge="1" parent="1" target="6HGDcnAOjzogvF6U0O8i-2">
          <mxGeometry relative="1" as="geometry">
            <mxPoint x="413" y="274" as="sourcePoint" />
          </mxGeometry>
        </mxCell>
        <mxCell id="6HGDcnAOjzogvF6U0O8i-2" value="" style="ellipse;html=1;shape=startState;fillColor=#000000;strokeColor=#ff0000;" vertex="1" parent="1">
          <mxGeometry x="398.12" y="323" width="30" height="30" as="geometry" />
        </mxCell>
        <mxCell id="fpzTKFWr6JW0lUIrKDGI-1" value="&lt;font style=&quot;font-size: 30px;&quot; color=&quot;#ff2e9d&quot; face=&quot;Tahoma&quot;&gt;مشاهده مجله&lt;/font&gt;" style="text;html=1;align=center;verticalAlign=middle;resizable=0;points=[];autosize=1;strokeColor=none;fillColor=none;" vertex="1" parent="1">
          <mxGeometry x="73" y="30" width="198" height="48" as="geometry" />
        </mxCell>
      </root>
    </mxGraphModel>
  </diagram>
  <diagram id="z7CmttYCGPX6qLOfJtiS" name="پیشنهاد برای مجله">
    <mxGraphModel dx="1434" dy="820" grid="0" gridSize="10" guides="1" tooltips="1" connect="1" arrows="1" fold="1" page="1" pageScale="1" pageWidth="850" pageHeight="1100" math="0" shadow="1">
      <root>
        <mxCell id="0" />
        <mxCell id="1" parent="0" />
        <mxCell id="HCEs0SlgZdrvUm9B_2CB-1" style="edgeStyle=orthogonalEdgeStyle;rounded=0;orthogonalLoop=1;jettySize=auto;html=1;entryX=0.5;entryY=0;entryDx=0;entryDy=0;" parent="1" source="HCEs0SlgZdrvUm9B_2CB-2" target="HCEs0SlgZdrvUm9B_2CB-4" edge="1">
          <mxGeometry relative="1" as="geometry" />
        </mxCell>
        <mxCell id="HCEs0SlgZdrvUm9B_2CB-2" value="" style="ellipse;html=1;shape=startState;fillColor=#000000;strokeColor=#ff0000;" parent="1" vertex="1">
          <mxGeometry x="408.12" y="18" width="30" height="30" as="geometry" />
        </mxCell>
        <mxCell id="HCEs0SlgZdrvUm9B_2CB-3" style="edgeStyle=orthogonalEdgeStyle;rounded=0;orthogonalLoop=1;jettySize=auto;html=1;entryX=0.5;entryY=0;entryDx=0;entryDy=0;" parent="1" source="HCEs0SlgZdrvUm9B_2CB-4" target="HCEs0SlgZdrvUm9B_2CB-6" edge="1">
          <mxGeometry relative="1" as="geometry" />
        </mxCell>
        <mxCell id="HCEs0SlgZdrvUm9B_2CB-4" value="انتخاب گزینه مجله هفتگی" style="rounded=1;whiteSpace=wrap;html=1;fillColor=#fff2cc;strokeColor=#d6b656;" parent="1" vertex="1">
          <mxGeometry x="363.12" y="102" width="120" height="60" as="geometry" />
        </mxCell>
        <mxCell id="HCEs0SlgZdrvUm9B_2CB-5" style="edgeStyle=orthogonalEdgeStyle;rounded=0;orthogonalLoop=1;jettySize=auto;html=1;" parent="1" source="HCEs0SlgZdrvUm9B_2CB-6" target="HCEs0SlgZdrvUm9B_2CB-8" edge="1">
          <mxGeometry relative="1" as="geometry" />
        </mxCell>
        <mxCell id="HCEs0SlgZdrvUm9B_2CB-6" value="انتخاب پیشنهاد" style="rounded=1;whiteSpace=wrap;html=1;fillColor=#fff2cc;strokeColor=#d6b656;" parent="1" vertex="1">
          <mxGeometry x="363.12" y="216" width="120" height="60" as="geometry" />
        </mxCell>
        <mxCell id="HCEs0SlgZdrvUm9B_2CB-7" style="edgeStyle=orthogonalEdgeStyle;rounded=0;orthogonalLoop=1;jettySize=auto;html=1;entryX=0.5;entryY=0;entryDx=0;entryDy=0;" parent="1" source="HCEs0SlgZdrvUm9B_2CB-8" target="HCEs0SlgZdrvUm9B_2CB-10" edge="1">
          <mxGeometry relative="1" as="geometry" />
        </mxCell>
        <mxCell id="HCEs0SlgZdrvUm9B_2CB-8" value="وارد کردن نام و نام‌خانوادگی" style="rounded=1;whiteSpace=wrap;html=1;fillColor=#fff2cc;strokeColor=#d6b656;" parent="1" vertex="1">
          <mxGeometry x="363.12" y="330" width="120" height="60" as="geometry" />
        </mxCell>
        <mxCell id="HCEs0SlgZdrvUm9B_2CB-9" style="edgeStyle=orthogonalEdgeStyle;rounded=0;orthogonalLoop=1;jettySize=auto;html=1;entryX=0.5;entryY=0;entryDx=0;entryDy=0;" parent="1" source="HCEs0SlgZdrvUm9B_2CB-10" target="HCEs0SlgZdrvUm9B_2CB-12" edge="1">
          <mxGeometry relative="1" as="geometry" />
        </mxCell>
        <mxCell id="HCEs0SlgZdrvUm9B_2CB-10" value="وارد کردن ایمیل" style="rounded=1;whiteSpace=wrap;html=1;fillColor=#fff2cc;strokeColor=#d6b656;" parent="1" vertex="1">
          <mxGeometry x="363.12" y="444" width="120" height="60" as="geometry" />
        </mxCell>
        <mxCell id="HCEs0SlgZdrvUm9B_2CB-11" style="edgeStyle=orthogonalEdgeStyle;rounded=0;orthogonalLoop=1;jettySize=auto;html=1;entryX=0.5;entryY=0;entryDx=0;entryDy=0;" parent="1" source="HCEs0SlgZdrvUm9B_2CB-12" target="HCEs0SlgZdrvUm9B_2CB-13" edge="1">
          <mxGeometry relative="1" as="geometry" />
        </mxCell>
        <mxCell id="HCEs0SlgZdrvUm9B_2CB-12" value="وارد کردن پیشنهاد خود" style="rounded=1;whiteSpace=wrap;html=1;fillColor=#fff2cc;strokeColor=#d6b656;" parent="1" vertex="1">
          <mxGeometry x="363.12" y="558" width="120" height="60" as="geometry" />
        </mxCell>
        <mxCell id="HCEs0SlgZdrvUm9B_2CB-13" value="ثبت پیشنهاد" style="rounded=1;whiteSpace=wrap;html=1;fillColor=#fff2cc;strokeColor=#d6b656;" parent="1" vertex="1">
          <mxGeometry x="363.12" y="672" width="120" height="60" as="geometry" />
        </mxCell>
        <mxCell id="aRDxFZEIfJclHrrEeHYm-1" value="" style="edgeStyle=orthogonalEdgeStyle;rounded=0;orthogonalLoop=1;jettySize=auto;html=1;" edge="1" parent="1" target="aRDxFZEIfJclHrrEeHYm-2">
          <mxGeometry relative="1" as="geometry">
            <mxPoint x="422.88" y="735" as="sourcePoint" />
          </mxGeometry>
        </mxCell>
        <mxCell id="aRDxFZEIfJclHrrEeHYm-2" value="" style="ellipse;html=1;shape=startState;fillColor=#000000;strokeColor=#ff0000;" vertex="1" parent="1">
          <mxGeometry x="408" y="784" width="30" height="30" as="geometry" />
        </mxCell>
        <mxCell id="8EQHPhAQM4INeX-TKSvF-1" value="&lt;font style=&quot;font-size: 30px;&quot; color=&quot;#ff2e9d&quot; face=&quot;Tahoma&quot;&gt;پیشنهاد برای مجله&lt;/font&gt;" style="text;html=1;align=center;verticalAlign=middle;resizable=0;points=[];autosize=1;strokeColor=none;fillColor=none;" vertex="1" parent="1">
          <mxGeometry x="45" y="30" width="255" height="48" as="geometry" />
        </mxCell>
      </root>
    </mxGraphModel>
  </diagram>
  <diagram id="g3hmmyfDTkk_riZOD2IL" name="تست روانشناسی">
    <mxGraphModel dx="1434" dy="820" grid="0" gridSize="10" guides="1" tooltips="1" connect="1" arrows="1" fold="1" page="1" pageScale="1" pageWidth="850" pageHeight="1100" math="0" shadow="1">
      <root>
        <mxCell id="0" />
        <mxCell id="1" parent="0" />
        <mxCell id="pLKDDSKlxrVRtJhLnME_-1" style="edgeStyle=orthogonalEdgeStyle;rounded=0;orthogonalLoop=1;jettySize=auto;html=1;entryX=0.5;entryY=0;entryDx=0;entryDy=0;" parent="1" source="pLKDDSKlxrVRtJhLnME_-2" target="pLKDDSKlxrVRtJhLnME_-3" edge="1">
          <mxGeometry relative="1" as="geometry" />
        </mxCell>
        <mxCell id="pLKDDSKlxrVRtJhLnME_-2" value="" style="ellipse;html=1;shape=startState;fillColor=#000000;strokeColor=#ff0000;" parent="1" vertex="1">
          <mxGeometry x="408.12" y="18" width="30" height="30" as="geometry" />
        </mxCell>
        <mxCell id="bqUCP1LabAtK5J1-2fTZ-4" style="edgeStyle=orthogonalEdgeStyle;rounded=0;orthogonalLoop=1;jettySize=auto;html=1;entryX=0.5;entryY=0;entryDx=0;entryDy=0;" parent="1" source="pLKDDSKlxrVRtJhLnME_-3" target="bqUCP1LabAtK5J1-2fTZ-1" edge="1">
          <mxGeometry relative="1" as="geometry" />
        </mxCell>
        <mxCell id="pLKDDSKlxrVRtJhLnME_-3" value="انتخاب دکمه تست‌های روان‌شناسی" style="rounded=1;whiteSpace=wrap;html=1;fillColor=#fff2cc;strokeColor=#d6b656;" parent="1" vertex="1">
          <mxGeometry x="363.12" y="102" width="120" height="60" as="geometry" />
        </mxCell>
        <mxCell id="bqUCP1LabAtK5J1-2fTZ-5" style="edgeStyle=orthogonalEdgeStyle;rounded=0;orthogonalLoop=1;jettySize=auto;html=1;entryX=0.5;entryY=0;entryDx=0;entryDy=0;" parent="1" source="bqUCP1LabAtK5J1-2fTZ-1" target="bqUCP1LabAtK5J1-2fTZ-2" edge="1">
          <mxGeometry relative="1" as="geometry" />
        </mxCell>
        <mxCell id="bqUCP1LabAtK5J1-2fTZ-1" value="انتخاب موضوع تست از بین گزینه‌های موجود" style="rounded=1;whiteSpace=wrap;html=1;fillColor=#fff2cc;strokeColor=#d6b656;" parent="1" vertex="1">
          <mxGeometry x="363.12" y="219" width="120" height="60" as="geometry" />
        </mxCell>
        <mxCell id="bqUCP1LabAtK5J1-2fTZ-6" style="edgeStyle=orthogonalEdgeStyle;rounded=0;orthogonalLoop=1;jettySize=auto;html=1;" parent="1" source="bqUCP1LabAtK5J1-2fTZ-2" target="bqUCP1LabAtK5J1-2fTZ-3" edge="1">
          <mxGeometry relative="1" as="geometry" />
        </mxCell>
        <mxCell id="bqUCP1LabAtK5J1-2fTZ-2" value="پاسخ دادن به هر سوال از تست" style="rounded=1;whiteSpace=wrap;html=1;fillColor=#fff2cc;strokeColor=#d6b656;" parent="1" vertex="1">
          <mxGeometry x="363.12" y="336" width="120" height="60" as="geometry" />
        </mxCell>
        <mxCell id="bqUCP1LabAtK5J1-2fTZ-3" value="اتمام تست" style="rounded=1;whiteSpace=wrap;html=1;fillColor=#fff2cc;strokeColor=#d6b656;" parent="1" vertex="1">
          <mxGeometry x="363.12" y="453" width="120" height="60" as="geometry" />
        </mxCell>
        <mxCell id="EeC8Lud7zpJlD5MK5ZPz-5" value="" style="edgeStyle=orthogonalEdgeStyle;rounded=0;orthogonalLoop=1;jettySize=auto;html=1;" edge="1" parent="1" target="EeC8Lud7zpJlD5MK5ZPz-6">
          <mxGeometry relative="1" as="geometry">
            <mxPoint x="423" y="516" as="sourcePoint" />
          </mxGeometry>
        </mxCell>
        <mxCell id="EeC8Lud7zpJlD5MK5ZPz-6" value="" style="ellipse;html=1;shape=startState;fillColor=#000000;strokeColor=#ff0000;" vertex="1" parent="1">
          <mxGeometry x="408.12" y="565" width="30" height="30" as="geometry" />
        </mxCell>
        <mxCell id="sh3j_Vu9B9kyF52BK0mV-1" value="&lt;font style=&quot;font-size: 30px;&quot; color=&quot;#ff2e9d&quot; face=&quot;Tahoma&quot;&gt;تست روان‌شناسی‌‏‎&lt;br&gt;&lt;/font&gt;" style="text;html=1;align=center;verticalAlign=middle;resizable=0;points=[];autosize=1;strokeColor=none;fillColor=none;" vertex="1" parent="1">
          <mxGeometry x="45" y="30" width="254" height="48" as="geometry" />
        </mxCell>
      </root>
    </mxGraphModel>
  </diagram>
  <diagram name="ثبت‌نام" id="GEQRo5h9ixli0StdwVT6">
    <mxGraphModel dx="1195" dy="683" grid="0" gridSize="10" guides="1" tooltips="1" connect="1" arrows="1" fold="1" page="1" pageScale="1" pageWidth="1100" pageHeight="850" math="0" shadow="0">
      <root>
        <mxCell id="0" />
        <mxCell id="1" parent="0" />
        <mxCell id="_JVXmbqGrF9SE3ob3NmW-1" value="&lt;font style=&quot;font-size: 30px;&quot; color=&quot;#ff2e9d&quot; face=&quot;Tahoma&quot;&gt;ثبت نام&lt;br&gt;&lt;/font&gt;" style="text;html=1;align=center;verticalAlign=middle;resizable=0;points=[];autosize=1;strokeColor=none;fillColor=none;" parent="1" vertex="1">
          <mxGeometry x="118" y="30" width="109" height="48" as="geometry" />
        </mxCell>
        <mxCell id="FWSVJJncIZ_kS6vJ8xDO-4" style="edgeStyle=orthogonalEdgeStyle;rounded=0;orthogonalLoop=1;jettySize=auto;html=1;dashed=1;endArrow=none;endFill=0;" edge="1" parent="1" source="FWSVJJncIZ_kS6vJ8xDO-6">
          <mxGeometry relative="1" as="geometry">
            <mxPoint x="173" y="526.8" as="targetPoint" />
          </mxGeometry>
        </mxCell>
        <mxCell id="FWSVJJncIZ_kS6vJ8xDO-1" value="User" style="shape=umlActor;verticalLabelPosition=bottom;verticalAlign=top;html=1;outlineConnect=0;" vertex="1" parent="1">
          <mxGeometry x="158" y="188" width="30" height="60" as="geometry" />
        </mxCell>
        <mxCell id="FWSVJJncIZ_kS6vJ8xDO-5" style="edgeStyle=orthogonalEdgeStyle;rounded=0;orthogonalLoop=1;jettySize=auto;html=1;dashed=1;endArrow=none;endFill=0;" edge="1" parent="1" source="FWSVJJncIZ_kS6vJ8xDO-9">
          <mxGeometry relative="1" as="geometry">
            <mxPoint x="349" y="527.2" as="targetPoint" />
          </mxGeometry>
        </mxCell>
        <mxCell id="FWSVJJncIZ_kS6vJ8xDO-2" value="System" style="shape=umlActor;verticalLabelPosition=bottom;verticalAlign=top;html=1;outlineConnect=0;" vertex="1" parent="1">
          <mxGeometry x="334" y="188" width="30" height="60" as="geometry" />
        </mxCell>
        <mxCell id="FWSVJJncIZ_kS6vJ8xDO-8" value="" style="edgeStyle=orthogonalEdgeStyle;rounded=0;orthogonalLoop=1;jettySize=auto;html=1;dashed=1;endArrow=none;endFill=0;" edge="1" parent="1" source="FWSVJJncIZ_kS6vJ8xDO-1" target="FWSVJJncIZ_kS6vJ8xDO-6">
          <mxGeometry relative="1" as="geometry">
            <mxPoint x="173" y="526.8" as="targetPoint" />
            <mxPoint x="173" y="248" as="sourcePoint" />
          </mxGeometry>
        </mxCell>
        <mxCell id="FWSVJJncIZ_kS6vJ8xDO-18" style="edgeStyle=orthogonalEdgeStyle;rounded=0;orthogonalLoop=1;jettySize=auto;html=1;entryX=0.5;entryY=1;entryDx=0;entryDy=0;" edge="1" parent="1">
          <mxGeometry relative="1" as="geometry">
            <mxPoint x="178" y="313.25" as="sourcePoint" />
            <mxPoint x="343.5" y="313.25" as="targetPoint" />
          </mxGeometry>
        </mxCell>
        <mxCell id="FWSVJJncIZ_kS6vJ8xDO-23" value="Role info" style="edgeStyle=orthogonalEdgeStyle;rounded=0;orthogonalLoop=1;jettySize=auto;html=1;entryX=0.5;entryY=1;entryDx=0;entryDy=0;dashed=1;" edge="1" parent="1">
          <mxGeometry relative="1" as="geometry">
            <mxPoint x="178" y="376.25" as="sourcePoint" />
            <mxPoint x="343.5" y="376.25" as="targetPoint" />
          </mxGeometry>
        </mxCell>
        <mxCell id="FWSVJJncIZ_kS6vJ8xDO-26" style="edgeStyle=orthogonalEdgeStyle;rounded=0;orthogonalLoop=1;jettySize=auto;html=1;entryX=0.5;entryY=1;entryDx=0;entryDy=0;dashed=1;" edge="1" parent="1">
          <mxGeometry relative="1" as="geometry">
            <mxPoint x="178" y="453.25" as="sourcePoint" />
            <mxPoint x="343.5" y="453.25" as="targetPoint" />
          </mxGeometry>
        </mxCell>
        <mxCell id="FWSVJJncIZ_kS6vJ8xDO-27" value="User info" style="edgeLabel;html=1;align=center;verticalAlign=middle;resizable=0;points=[];" vertex="1" connectable="0" parent="FWSVJJncIZ_kS6vJ8xDO-26">
          <mxGeometry x="0.0312" relative="1" as="geometry">
            <mxPoint as="offset" />
          </mxGeometry>
        </mxCell>
        <mxCell id="FWSVJJncIZ_kS6vJ8xDO-6" value="" style="rounded=0;whiteSpace=wrap;html=1;direction=south;" vertex="1" parent="1">
          <mxGeometry x="167" y="278" width="11" height="232.5" as="geometry" />
        </mxCell>
        <mxCell id="FWSVJJncIZ_kS6vJ8xDO-10" value="" style="edgeStyle=orthogonalEdgeStyle;rounded=0;orthogonalLoop=1;jettySize=auto;html=1;dashed=1;endArrow=none;endFill=0;" edge="1" parent="1" source="FWSVJJncIZ_kS6vJ8xDO-2" target="FWSVJJncIZ_kS6vJ8xDO-9">
          <mxGeometry relative="1" as="geometry">
            <mxPoint x="349" y="527.2" as="targetPoint" />
            <mxPoint x="349" y="248" as="sourcePoint" />
          </mxGeometry>
        </mxCell>
        <mxCell id="FWSVJJncIZ_kS6vJ8xDO-20" style="edgeStyle=orthogonalEdgeStyle;rounded=0;orthogonalLoop=1;jettySize=auto;html=1;entryX=0.5;entryY=0;entryDx=0;entryDy=0;" edge="1" parent="1">
          <mxGeometry relative="1" as="geometry">
            <mxPoint x="343.5" y="354.25" as="sourcePoint" />
            <mxPoint x="178" y="354.25" as="targetPoint" />
          </mxGeometry>
        </mxCell>
        <mxCell id="FWSVJJncIZ_kS6vJ8xDO-9" value="" style="rounded=0;whiteSpace=wrap;html=1;direction=south;" vertex="1" parent="1">
          <mxGeometry x="343.5" y="278" width="11" height="232.5" as="geometry" />
        </mxCell>
        <mxCell id="FWSVJJncIZ_kS6vJ8xDO-16" style="edgeStyle=orthogonalEdgeStyle;rounded=0;orthogonalLoop=1;jettySize=auto;html=1;endArrow=none;endFill=0;dashed=1;" edge="1" parent="1" source="FWSVJJncIZ_kS6vJ8xDO-11">
          <mxGeometry relative="1" as="geometry">
            <mxPoint x="704.5" y="536" as="targetPoint" />
          </mxGeometry>
        </mxCell>
        <mxCell id="FWSVJJncIZ_kS6vJ8xDO-11" value="" style="rounded=1;whiteSpace=wrap;html=1;fillColor=#76608a;fontColor=#ffffff;strokeColor=#432D57;" vertex="1" parent="1">
          <mxGeometry x="644" y="229" width="121" height="40" as="geometry" />
        </mxCell>
        <mxCell id="FWSVJJncIZ_kS6vJ8xDO-15" style="edgeStyle=orthogonalEdgeStyle;rounded=0;orthogonalLoop=1;jettySize=auto;html=1;dashed=1;endArrow=none;endFill=0;" edge="1" parent="1" source="FWSVJJncIZ_kS6vJ8xDO-13">
          <mxGeometry relative="1" as="geometry">
            <mxPoint x="503" y="535" as="targetPoint" />
          </mxGeometry>
        </mxCell>
        <mxCell id="FWSVJJncIZ_kS6vJ8xDO-13" value="" style="rounded=1;whiteSpace=wrap;html=1;fillColor=#76608a;fontColor=#ffffff;strokeColor=#432D57;" vertex="1" parent="1">
          <mxGeometry x="442.5" y="229" width="121" height="40" as="geometry" />
        </mxCell>
        <mxCell id="FWSVJJncIZ_kS6vJ8xDO-17" style="edgeStyle=orthogonalEdgeStyle;rounded=0;orthogonalLoop=1;jettySize=auto;html=1;endArrow=none;endFill=0;dashed=1;" edge="1" parent="1" source="FWSVJJncIZ_kS6vJ8xDO-14">
          <mxGeometry relative="1" as="geometry">
            <mxPoint x="906.5" y="540.3333333333335" as="targetPoint" />
          </mxGeometry>
        </mxCell>
        <mxCell id="FWSVJJncIZ_kS6vJ8xDO-14" value="" style="rounded=1;whiteSpace=wrap;html=1;fillColor=#76608a;fontColor=#ffffff;strokeColor=#432D57;" vertex="1" parent="1">
          <mxGeometry x="846" y="229" width="121" height="40" as="geometry" />
        </mxCell>
        <mxCell id="FWSVJJncIZ_kS6vJ8xDO-19" value="Register user()" style="text;html=1;align=center;verticalAlign=middle;resizable=0;points=[];autosize=1;strokeColor=none;fillColor=none;" vertex="1" parent="1">
          <mxGeometry x="211" y="290" width="101" height="26" as="geometry" />
        </mxCell>
        <mxCell id="FWSVJJncIZ_kS6vJ8xDO-22" value="Request Role info()" style="text;html=1;align=center;verticalAlign=middle;resizable=0;points=[];autosize=1;strokeColor=none;fillColor=none;" vertex="1" parent="1">
          <mxGeometry x="199" y="331" width="125" height="26" as="geometry" />
        </mxCell>
        <mxCell id="FWSVJJncIZ_kS6vJ8xDO-24" style="edgeStyle=orthogonalEdgeStyle;rounded=0;orthogonalLoop=1;jettySize=auto;html=1;entryX=0.5;entryY=0;entryDx=0;entryDy=0;" edge="1" parent="1">
          <mxGeometry relative="1" as="geometry">
            <mxPoint x="343.5" y="427.25" as="sourcePoint" />
            <mxPoint x="178" y="427.25" as="targetPoint" />
          </mxGeometry>
        </mxCell>
        <mxCell id="FWSVJJncIZ_kS6vJ8xDO-25" value="Request User info()" style="text;html=1;align=center;verticalAlign=middle;resizable=0;points=[];autosize=1;strokeColor=none;fillColor=none;" vertex="1" parent="1">
          <mxGeometry x="199" y="404" width="126" height="26" as="geometry" />
        </mxCell>
      </root>
    </mxGraphModel>
  </diagram>
  <diagram id="Te4KLHVubChY0bSY9mck" name="ورود">
    <mxGraphModel dx="1434" dy="820" grid="0" gridSize="10" guides="1" tooltips="1" connect="1" arrows="1" fold="1" page="1" pageScale="1" pageWidth="1100" pageHeight="850" math="0" shadow="0">
      <root>
        <mxCell id="0" />
        <mxCell id="1" parent="0" />
        <mxCell id="6Hs_96bp-xddahBLgxX3-1" value="&lt;font style=&quot;font-size: 30px;&quot; color=&quot;#ff2e9d&quot; face=&quot;Tahoma&quot;&gt;ورود&lt;/font&gt;" style="text;html=1;align=center;verticalAlign=middle;resizable=0;points=[];autosize=1;strokeColor=none;fillColor=none;" parent="1" vertex="1">
          <mxGeometry x="138" y="30" width="68" height="48" as="geometry" />
        </mxCell>
        <mxCell id="4KsnkOyGXE9-dBU2v8DP-1" style="edgeStyle=orthogonalEdgeStyle;rounded=0;orthogonalLoop=1;jettySize=auto;html=1;dashed=1;endArrow=none;endFill=0;" edge="1" parent="1" source="4KsnkOyGXE9-dBU2v8DP-10">
          <mxGeometry relative="1" as="geometry">
            <mxPoint x="166" y="526.8" as="targetPoint" />
          </mxGeometry>
        </mxCell>
        <mxCell id="4KsnkOyGXE9-dBU2v8DP-2" value="User" style="shape=umlActor;verticalLabelPosition=bottom;verticalAlign=top;html=1;outlineConnect=0;" vertex="1" parent="1">
          <mxGeometry x="151" y="188" width="30" height="60" as="geometry" />
        </mxCell>
        <mxCell id="4KsnkOyGXE9-dBU2v8DP-3" style="edgeStyle=orthogonalEdgeStyle;rounded=0;orthogonalLoop=1;jettySize=auto;html=1;dashed=1;endArrow=none;endFill=0;" edge="1" parent="1" source="4KsnkOyGXE9-dBU2v8DP-13">
          <mxGeometry relative="1" as="geometry">
            <mxPoint x="342" y="527.2" as="targetPoint" />
          </mxGeometry>
        </mxCell>
        <mxCell id="4KsnkOyGXE9-dBU2v8DP-4" value="System" style="shape=umlActor;verticalLabelPosition=bottom;verticalAlign=top;html=1;outlineConnect=0;" vertex="1" parent="1">
          <mxGeometry x="327" y="188" width="30" height="60" as="geometry" />
        </mxCell>
        <mxCell id="4KsnkOyGXE9-dBU2v8DP-5" value="" style="edgeStyle=orthogonalEdgeStyle;rounded=0;orthogonalLoop=1;jettySize=auto;html=1;dashed=1;endArrow=none;endFill=0;" edge="1" parent="1" source="4KsnkOyGXE9-dBU2v8DP-2" target="4KsnkOyGXE9-dBU2v8DP-10">
          <mxGeometry relative="1" as="geometry">
            <mxPoint x="166" y="526.8" as="targetPoint" />
            <mxPoint x="166" y="248" as="sourcePoint" />
          </mxGeometry>
        </mxCell>
        <mxCell id="4KsnkOyGXE9-dBU2v8DP-6" style="edgeStyle=orthogonalEdgeStyle;rounded=0;orthogonalLoop=1;jettySize=auto;html=1;entryX=0.5;entryY=1;entryDx=0;entryDy=0;" edge="1" parent="1">
          <mxGeometry relative="1" as="geometry">
            <mxPoint x="171" y="313.25" as="sourcePoint" />
            <mxPoint x="336.5" y="313.25" as="targetPoint" />
          </mxGeometry>
        </mxCell>
        <mxCell id="4KsnkOyGXE9-dBU2v8DP-7" value="Role info" style="edgeStyle=orthogonalEdgeStyle;rounded=0;orthogonalLoop=1;jettySize=auto;html=1;entryX=0.5;entryY=1;entryDx=0;entryDy=0;dashed=1;" edge="1" parent="1">
          <mxGeometry relative="1" as="geometry">
            <mxPoint x="171" y="376.25" as="sourcePoint" />
            <mxPoint x="336.5" y="376.25" as="targetPoint" />
          </mxGeometry>
        </mxCell>
        <mxCell id="4KsnkOyGXE9-dBU2v8DP-8" style="edgeStyle=orthogonalEdgeStyle;rounded=0;orthogonalLoop=1;jettySize=auto;html=1;entryX=0.5;entryY=1;entryDx=0;entryDy=0;dashed=1;" edge="1" parent="1">
          <mxGeometry relative="1" as="geometry">
            <mxPoint x="171" y="453.25" as="sourcePoint" />
            <mxPoint x="336.5" y="453.25" as="targetPoint" />
          </mxGeometry>
        </mxCell>
        <mxCell id="4KsnkOyGXE9-dBU2v8DP-9" value="User info" style="edgeLabel;html=1;align=center;verticalAlign=middle;resizable=0;points=[];" vertex="1" connectable="0" parent="4KsnkOyGXE9-dBU2v8DP-8">
          <mxGeometry x="0.0312" relative="1" as="geometry">
            <mxPoint as="offset" />
          </mxGeometry>
        </mxCell>
        <mxCell id="4KsnkOyGXE9-dBU2v8DP-10" value="" style="rounded=0;whiteSpace=wrap;html=1;direction=south;" vertex="1" parent="1">
          <mxGeometry x="160" y="278" width="11" height="232.5" as="geometry" />
        </mxCell>
        <mxCell id="4KsnkOyGXE9-dBU2v8DP-11" value="" style="edgeStyle=orthogonalEdgeStyle;rounded=0;orthogonalLoop=1;jettySize=auto;html=1;dashed=1;endArrow=none;endFill=0;" edge="1" parent="1" source="4KsnkOyGXE9-dBU2v8DP-4" target="4KsnkOyGXE9-dBU2v8DP-13">
          <mxGeometry relative="1" as="geometry">
            <mxPoint x="342" y="527.2" as="targetPoint" />
            <mxPoint x="342" y="248" as="sourcePoint" />
          </mxGeometry>
        </mxCell>
        <mxCell id="4KsnkOyGXE9-dBU2v8DP-12" style="edgeStyle=orthogonalEdgeStyle;rounded=0;orthogonalLoop=1;jettySize=auto;html=1;entryX=0.5;entryY=0;entryDx=0;entryDy=0;" edge="1" parent="1">
          <mxGeometry relative="1" as="geometry">
            <mxPoint x="336.5" y="354.25" as="sourcePoint" />
            <mxPoint x="171" y="354.25" as="targetPoint" />
          </mxGeometry>
        </mxCell>
        <mxCell id="4KsnkOyGXE9-dBU2v8DP-13" value="" style="rounded=0;whiteSpace=wrap;html=1;direction=south;" vertex="1" parent="1">
          <mxGeometry x="336.5" y="278" width="11" height="232.5" as="geometry" />
        </mxCell>
        <mxCell id="4KsnkOyGXE9-dBU2v8DP-14" style="edgeStyle=orthogonalEdgeStyle;rounded=0;orthogonalLoop=1;jettySize=auto;html=1;endArrow=none;endFill=0;dashed=1;" edge="1" parent="1" source="4KsnkOyGXE9-dBU2v8DP-15">
          <mxGeometry relative="1" as="geometry">
            <mxPoint x="697.5" y="536" as="targetPoint" />
          </mxGeometry>
        </mxCell>
        <mxCell id="4KsnkOyGXE9-dBU2v8DP-15" value="" style="rounded=1;whiteSpace=wrap;html=1;fillColor=#76608a;fontColor=#ffffff;strokeColor=#432D57;" vertex="1" parent="1">
          <mxGeometry x="637" y="229" width="121" height="40" as="geometry" />
        </mxCell>
        <mxCell id="4KsnkOyGXE9-dBU2v8DP-16" style="edgeStyle=orthogonalEdgeStyle;rounded=0;orthogonalLoop=1;jettySize=auto;html=1;dashed=1;endArrow=none;endFill=0;" edge="1" parent="1" source="4KsnkOyGXE9-dBU2v8DP-17">
          <mxGeometry relative="1" as="geometry">
            <mxPoint x="496" y="535" as="targetPoint" />
          </mxGeometry>
        </mxCell>
        <mxCell id="4KsnkOyGXE9-dBU2v8DP-17" value="" style="rounded=1;whiteSpace=wrap;html=1;fillColor=#76608a;fontColor=#ffffff;strokeColor=#432D57;" vertex="1" parent="1">
          <mxGeometry x="435.5" y="229" width="121" height="40" as="geometry" />
        </mxCell>
        <mxCell id="4KsnkOyGXE9-dBU2v8DP-18" style="edgeStyle=orthogonalEdgeStyle;rounded=0;orthogonalLoop=1;jettySize=auto;html=1;endArrow=none;endFill=0;dashed=1;" edge="1" parent="1" source="4KsnkOyGXE9-dBU2v8DP-19">
          <mxGeometry relative="1" as="geometry">
            <mxPoint x="899.5" y="540.3333333333335" as="targetPoint" />
          </mxGeometry>
        </mxCell>
        <mxCell id="4KsnkOyGXE9-dBU2v8DP-19" value="" style="rounded=1;whiteSpace=wrap;html=1;fillColor=#76608a;fontColor=#ffffff;strokeColor=#432D57;" vertex="1" parent="1">
          <mxGeometry x="839" y="229" width="121" height="40" as="geometry" />
        </mxCell>
        <mxCell id="4KsnkOyGXE9-dBU2v8DP-20" value="Register user()" style="text;html=1;align=center;verticalAlign=middle;resizable=0;points=[];autosize=1;strokeColor=none;fillColor=none;" vertex="1" parent="1">
          <mxGeometry x="204" y="290" width="101" height="26" as="geometry" />
        </mxCell>
        <mxCell id="4KsnkOyGXE9-dBU2v8DP-21" value="Request Role info()" style="text;html=1;align=center;verticalAlign=middle;resizable=0;points=[];autosize=1;strokeColor=none;fillColor=none;" vertex="1" parent="1">
          <mxGeometry x="192" y="331" width="125" height="26" as="geometry" />
        </mxCell>
        <mxCell id="4KsnkOyGXE9-dBU2v8DP-22" style="edgeStyle=orthogonalEdgeStyle;rounded=0;orthogonalLoop=1;jettySize=auto;html=1;entryX=0.5;entryY=0;entryDx=0;entryDy=0;" edge="1" parent="1">
          <mxGeometry relative="1" as="geometry">
            <mxPoint x="336.5" y="427.25" as="sourcePoint" />
            <mxPoint x="171" y="427.25" as="targetPoint" />
          </mxGeometry>
        </mxCell>
        <mxCell id="4KsnkOyGXE9-dBU2v8DP-23" value="Request User info()" style="text;html=1;align=center;verticalAlign=middle;resizable=0;points=[];autosize=1;strokeColor=none;fillColor=none;" vertex="1" parent="1">
          <mxGeometry x="192" y="404" width="126" height="26" as="geometry" />
        </mxCell>
      </root>
    </mxGraphModel>
  </diagram>
  <diagram id="DtYyJQeYXELRa5RA4pPk" name="فراموشی رمز عبور">
    <mxGraphModel dx="1434" dy="820" grid="0" gridSize="10" guides="1" tooltips="1" connect="1" arrows="1" fold="1" page="1" pageScale="1" pageWidth="1100" pageHeight="850" math="0" shadow="0">
      <root>
        <mxCell id="0" />
        <mxCell id="1" parent="0" />
        <mxCell id="XZ3rMVsH5X6rX2ulLaPv-9" value="&lt;font style=&quot;font-size: 30px;&quot; color=&quot;#ff2e9d&quot; face=&quot;Tahoma&quot;&gt;فراموشی رمز عبور&lt;br&gt;&lt;/font&gt;" style="text;html=1;align=center;verticalAlign=middle;resizable=0;points=[];autosize=1;strokeColor=none;fillColor=none;" parent="1" vertex="1">
          <mxGeometry x="48" y="30" width="248" height="48" as="geometry" />
        </mxCell>
        <mxCell id="jfLhHjgHqMmPe6YnH5is-1" style="edgeStyle=orthogonalEdgeStyle;rounded=0;orthogonalLoop=1;jettySize=auto;html=1;dashed=1;endArrow=none;endFill=0;" edge="1" parent="1" source="jfLhHjgHqMmPe6YnH5is-10">
          <mxGeometry relative="1" as="geometry">
            <mxPoint x="169" y="554.8" as="targetPoint" />
          </mxGeometry>
        </mxCell>
        <mxCell id="jfLhHjgHqMmPe6YnH5is-2" value="User" style="shape=umlActor;verticalLabelPosition=bottom;verticalAlign=top;html=1;outlineConnect=0;" vertex="1" parent="1">
          <mxGeometry x="154" y="216" width="30" height="60" as="geometry" />
        </mxCell>
        <mxCell id="jfLhHjgHqMmPe6YnH5is-3" style="edgeStyle=orthogonalEdgeStyle;rounded=0;orthogonalLoop=1;jettySize=auto;html=1;dashed=1;endArrow=none;endFill=0;" edge="1" parent="1" source="jfLhHjgHqMmPe6YnH5is-13">
          <mxGeometry relative="1" as="geometry">
            <mxPoint x="345" y="555.2" as="targetPoint" />
          </mxGeometry>
        </mxCell>
        <mxCell id="jfLhHjgHqMmPe6YnH5is-4" value="System" style="shape=umlActor;verticalLabelPosition=bottom;verticalAlign=top;html=1;outlineConnect=0;" vertex="1" parent="1">
          <mxGeometry x="330" y="216" width="30" height="60" as="geometry" />
        </mxCell>
        <mxCell id="jfLhHjgHqMmPe6YnH5is-5" value="" style="edgeStyle=orthogonalEdgeStyle;rounded=0;orthogonalLoop=1;jettySize=auto;html=1;dashed=1;endArrow=none;endFill=0;" edge="1" parent="1" source="jfLhHjgHqMmPe6YnH5is-2" target="jfLhHjgHqMmPe6YnH5is-10">
          <mxGeometry relative="1" as="geometry">
            <mxPoint x="169" y="554.8" as="targetPoint" />
            <mxPoint x="169" y="276" as="sourcePoint" />
          </mxGeometry>
        </mxCell>
        <mxCell id="jfLhHjgHqMmPe6YnH5is-6" style="edgeStyle=orthogonalEdgeStyle;rounded=0;orthogonalLoop=1;jettySize=auto;html=1;entryX=0.5;entryY=1;entryDx=0;entryDy=0;" edge="1" parent="1">
          <mxGeometry relative="1" as="geometry">
            <mxPoint x="174" y="341.25" as="sourcePoint" />
            <mxPoint x="339.5" y="341.25" as="targetPoint" />
          </mxGeometry>
        </mxCell>
        <mxCell id="jfLhHjgHqMmPe6YnH5is-7" value="Role info" style="edgeStyle=orthogonalEdgeStyle;rounded=0;orthogonalLoop=1;jettySize=auto;html=1;entryX=0.5;entryY=1;entryDx=0;entryDy=0;dashed=1;" edge="1" parent="1">
          <mxGeometry relative="1" as="geometry">
            <mxPoint x="174" y="404.25" as="sourcePoint" />
            <mxPoint x="339.5" y="404.25" as="targetPoint" />
          </mxGeometry>
        </mxCell>
        <mxCell id="jfLhHjgHqMmPe6YnH5is-8" style="edgeStyle=orthogonalEdgeStyle;rounded=0;orthogonalLoop=1;jettySize=auto;html=1;entryX=0.5;entryY=1;entryDx=0;entryDy=0;dashed=1;" edge="1" parent="1">
          <mxGeometry relative="1" as="geometry">
            <mxPoint x="174" y="481.25" as="sourcePoint" />
            <mxPoint x="339.5" y="481.25" as="targetPoint" />
          </mxGeometry>
        </mxCell>
        <mxCell id="jfLhHjgHqMmPe6YnH5is-9" value="User info" style="edgeLabel;html=1;align=center;verticalAlign=middle;resizable=0;points=[];" vertex="1" connectable="0" parent="jfLhHjgHqMmPe6YnH5is-8">
          <mxGeometry x="0.0312" relative="1" as="geometry">
            <mxPoint as="offset" />
          </mxGeometry>
        </mxCell>
        <mxCell id="jfLhHjgHqMmPe6YnH5is-10" value="" style="rounded=0;whiteSpace=wrap;html=1;direction=south;" vertex="1" parent="1">
          <mxGeometry x="163" y="306" width="11" height="232.5" as="geometry" />
        </mxCell>
        <mxCell id="jfLhHjgHqMmPe6YnH5is-11" value="" style="edgeStyle=orthogonalEdgeStyle;rounded=0;orthogonalLoop=1;jettySize=auto;html=1;dashed=1;endArrow=none;endFill=0;" edge="1" parent="1" source="jfLhHjgHqMmPe6YnH5is-4" target="jfLhHjgHqMmPe6YnH5is-13">
          <mxGeometry relative="1" as="geometry">
            <mxPoint x="345" y="555.2" as="targetPoint" />
            <mxPoint x="345" y="276" as="sourcePoint" />
          </mxGeometry>
        </mxCell>
        <mxCell id="jfLhHjgHqMmPe6YnH5is-12" style="edgeStyle=orthogonalEdgeStyle;rounded=0;orthogonalLoop=1;jettySize=auto;html=1;entryX=0.5;entryY=0;entryDx=0;entryDy=0;" edge="1" parent="1">
          <mxGeometry relative="1" as="geometry">
            <mxPoint x="339.5" y="382.25" as="sourcePoint" />
            <mxPoint x="174" y="382.25" as="targetPoint" />
          </mxGeometry>
        </mxCell>
        <mxCell id="jfLhHjgHqMmPe6YnH5is-13" value="" style="rounded=0;whiteSpace=wrap;html=1;direction=south;" vertex="1" parent="1">
          <mxGeometry x="339.5" y="306" width="11" height="232.5" as="geometry" />
        </mxCell>
        <mxCell id="jfLhHjgHqMmPe6YnH5is-14" style="edgeStyle=orthogonalEdgeStyle;rounded=0;orthogonalLoop=1;jettySize=auto;html=1;endArrow=none;endFill=0;dashed=1;" edge="1" parent="1" source="jfLhHjgHqMmPe6YnH5is-15">
          <mxGeometry relative="1" as="geometry">
            <mxPoint x="700.5" y="564" as="targetPoint" />
          </mxGeometry>
        </mxCell>
        <mxCell id="jfLhHjgHqMmPe6YnH5is-15" value="" style="rounded=1;whiteSpace=wrap;html=1;fillColor=#76608a;fontColor=#ffffff;strokeColor=#432D57;" vertex="1" parent="1">
          <mxGeometry x="640" y="257" width="121" height="40" as="geometry" />
        </mxCell>
        <mxCell id="jfLhHjgHqMmPe6YnH5is-16" style="edgeStyle=orthogonalEdgeStyle;rounded=0;orthogonalLoop=1;jettySize=auto;html=1;dashed=1;endArrow=none;endFill=0;" edge="1" parent="1" source="jfLhHjgHqMmPe6YnH5is-17">
          <mxGeometry relative="1" as="geometry">
            <mxPoint x="499" y="563" as="targetPoint" />
          </mxGeometry>
        </mxCell>
        <mxCell id="jfLhHjgHqMmPe6YnH5is-17" value="" style="rounded=1;whiteSpace=wrap;html=1;fillColor=#76608a;fontColor=#ffffff;strokeColor=#432D57;" vertex="1" parent="1">
          <mxGeometry x="438.5" y="257" width="121" height="40" as="geometry" />
        </mxCell>
        <mxCell id="jfLhHjgHqMmPe6YnH5is-18" style="edgeStyle=orthogonalEdgeStyle;rounded=0;orthogonalLoop=1;jettySize=auto;html=1;endArrow=none;endFill=0;dashed=1;" edge="1" parent="1" source="jfLhHjgHqMmPe6YnH5is-19">
          <mxGeometry relative="1" as="geometry">
            <mxPoint x="902.5" y="568.3333333333335" as="targetPoint" />
          </mxGeometry>
        </mxCell>
        <mxCell id="jfLhHjgHqMmPe6YnH5is-19" value="" style="rounded=1;whiteSpace=wrap;html=1;fillColor=#76608a;fontColor=#ffffff;strokeColor=#432D57;" vertex="1" parent="1">
          <mxGeometry x="842" y="257" width="121" height="40" as="geometry" />
        </mxCell>
        <mxCell id="jfLhHjgHqMmPe6YnH5is-20" value="Register user()" style="text;html=1;align=center;verticalAlign=middle;resizable=0;points=[];autosize=1;strokeColor=none;fillColor=none;" vertex="1" parent="1">
          <mxGeometry x="207" y="318" width="101" height="26" as="geometry" />
        </mxCell>
        <mxCell id="jfLhHjgHqMmPe6YnH5is-21" value="Request Role info()" style="text;html=1;align=center;verticalAlign=middle;resizable=0;points=[];autosize=1;strokeColor=none;fillColor=none;" vertex="1" parent="1">
          <mxGeometry x="195" y="359" width="125" height="26" as="geometry" />
        </mxCell>
        <mxCell id="jfLhHjgHqMmPe6YnH5is-22" style="edgeStyle=orthogonalEdgeStyle;rounded=0;orthogonalLoop=1;jettySize=auto;html=1;entryX=0.5;entryY=0;entryDx=0;entryDy=0;" edge="1" parent="1">
          <mxGeometry relative="1" as="geometry">
            <mxPoint x="339.5" y="455.25" as="sourcePoint" />
            <mxPoint x="174" y="455.25" as="targetPoint" />
          </mxGeometry>
        </mxCell>
        <mxCell id="jfLhHjgHqMmPe6YnH5is-23" value="Request User info()" style="text;html=1;align=center;verticalAlign=middle;resizable=0;points=[];autosize=1;strokeColor=none;fillColor=none;" vertex="1" parent="1">
          <mxGeometry x="195" y="432" width="126" height="26" as="geometry" />
        </mxCell>
      </root>
    </mxGraphModel>
  </diagram>
  <diagram id="BHZnrNLnJnv8liGBW0W6" name="ثبت نوبت">
    <mxGraphModel dx="1434" dy="820" grid="0" gridSize="10" guides="1" tooltips="1" connect="1" arrows="1" fold="1" page="1" pageScale="1" pageWidth="850" pageHeight="1400" math="0" shadow="1">
      <root>
        <mxCell id="0" />
        <mxCell id="1" parent="0" />
        <mxCell id="SbawjOaqeIdmIskxYOFH-20" style="edgeStyle=orthogonalEdgeStyle;rounded=0;orthogonalLoop=1;jettySize=auto;html=1;entryX=0.5;entryY=0;entryDx=0;entryDy=0;" parent="1" source="GOk-pDdKcaSjYP1GK6xx-4" target="SbawjOaqeIdmIskxYOFH-18" edge="1">
          <mxGeometry relative="1" as="geometry" />
        </mxCell>
        <mxCell id="SbawjOaqeIdmIskxYOFH-21" value="موفق" style="edgeLabel;html=1;align=center;verticalAlign=middle;resizable=0;points=[];" parent="SbawjOaqeIdmIskxYOFH-20" vertex="1" connectable="0">
          <mxGeometry x="-0.1005" y="1" relative="1" as="geometry">
            <mxPoint as="offset" />
          </mxGeometry>
        </mxCell>
        <mxCell id="SbawjOaqeIdmIskxYOFH-22" style="edgeStyle=orthogonalEdgeStyle;rounded=0;orthogonalLoop=1;jettySize=auto;html=1;entryX=1;entryY=0.5;entryDx=0;entryDy=0;" parent="1" source="GOk-pDdKcaSjYP1GK6xx-4" target="SbawjOaqeIdmIskxYOFH-13" edge="1">
          <mxGeometry relative="1" as="geometry">
            <Array as="points">
              <mxPoint x="528" y="1436" />
              <mxPoint x="528" y="1312" />
            </Array>
          </mxGeometry>
        </mxCell>
        <mxCell id="SbawjOaqeIdmIskxYOFH-23" value="ناموفق" style="edgeLabel;html=1;align=center;verticalAlign=middle;resizable=0;points=[];" parent="SbawjOaqeIdmIskxYOFH-22" vertex="1" connectable="0">
          <mxGeometry x="-0.0872" y="1" relative="1" as="geometry">
            <mxPoint as="offset" />
          </mxGeometry>
        </mxCell>
        <mxCell id="GOk-pDdKcaSjYP1GK6xx-4" value="عملیات پرداخت" style="rhombus;whiteSpace=wrap;html=1;fillColor=#dae8fc;strokeColor=#6c8ebf;" parent="1" vertex="1">
          <mxGeometry x="338.62" y="1396" width="169" height="80" as="geometry" />
        </mxCell>
        <mxCell id="SbawjOaqeIdmIskxYOFH-2" value="مشاهده پروفایل پزشک" style="rounded=1;whiteSpace=wrap;html=1;fillColor=#fff2cc;strokeColor=#d6b656;" parent="1" vertex="1">
          <mxGeometry x="232" y="563" width="120" height="60" as="geometry" />
        </mxCell>
        <mxCell id="SbawjOaqeIdmIskxYOFH-11" style="edgeStyle=orthogonalEdgeStyle;rounded=0;orthogonalLoop=1;jettySize=auto;html=1;entryX=0.5;entryY=0;entryDx=0;entryDy=0;" parent="1" source="SbawjOaqeIdmIskxYOFH-4" target="SbawjOaqeIdmIskxYOFH-5" edge="1">
          <mxGeometry relative="1" as="geometry" />
        </mxCell>
        <mxCell id="SbawjOaqeIdmIskxYOFH-4" value="انتخاب تاریخ در پنجره بازشده" style="rounded=1;whiteSpace=wrap;html=1;fillColor=#fff2cc;strokeColor=#d6b656;" parent="1" vertex="1">
          <mxGeometry x="363.12" y="940" width="120" height="60" as="geometry" />
        </mxCell>
        <mxCell id="SbawjOaqeIdmIskxYOFH-14" style="edgeStyle=orthogonalEdgeStyle;rounded=0;orthogonalLoop=1;jettySize=auto;html=1;entryX=0.5;entryY=0;entryDx=0;entryDy=0;" parent="1" source="SbawjOaqeIdmIskxYOFH-5" target="SbawjOaqeIdmIskxYOFH-12" edge="1">
          <mxGeometry relative="1" as="geometry" />
        </mxCell>
        <mxCell id="SbawjOaqeIdmIskxYOFH-5" value="انتخاب زمان در پنجره بازشده" style="rounded=1;whiteSpace=wrap;html=1;fillColor=#fff2cc;strokeColor=#d6b656;" parent="1" vertex="1">
          <mxGeometry x="363.12" y="1054" width="120" height="60" as="geometry" />
        </mxCell>
        <mxCell id="SbawjOaqeIdmIskxYOFH-15" style="edgeStyle=orthogonalEdgeStyle;rounded=0;orthogonalLoop=1;jettySize=auto;html=1;entryX=0.5;entryY=0;entryDx=0;entryDy=0;" parent="1" source="SbawjOaqeIdmIskxYOFH-12" target="SbawjOaqeIdmIskxYOFH-13" edge="1">
          <mxGeometry relative="1" as="geometry" />
        </mxCell>
        <mxCell id="SbawjOaqeIdmIskxYOFH-12" value="انتخاب نوع مراجعه" style="rounded=1;whiteSpace=wrap;html=1;fillColor=#fff2cc;strokeColor=#d6b656;" parent="1" vertex="1">
          <mxGeometry x="363.12" y="1168" width="120" height="60" as="geometry" />
        </mxCell>
        <mxCell id="SbawjOaqeIdmIskxYOFH-17" style="edgeStyle=orthogonalEdgeStyle;rounded=0;orthogonalLoop=1;jettySize=auto;html=1;entryX=0.499;entryY=0.01;entryDx=0;entryDy=0;entryPerimeter=0;" parent="1" source="SbawjOaqeIdmIskxYOFH-13" target="GOk-pDdKcaSjYP1GK6xx-4" edge="1">
          <mxGeometry relative="1" as="geometry">
            <mxPoint x="423.1199999999999" y="1396" as="targetPoint" />
          </mxGeometry>
        </mxCell>
        <mxCell id="SbawjOaqeIdmIskxYOFH-13" value="انتخاب گزینه پرداخت" style="rounded=1;whiteSpace=wrap;html=1;fillColor=#fff2cc;strokeColor=#d6b656;" parent="1" vertex="1">
          <mxGeometry x="363.12" y="1282" width="120" height="60" as="geometry" />
        </mxCell>
        <mxCell id="MFxGl4JG-XU4L95opN_a-2" value="" style="edgeStyle=orthogonalEdgeStyle;rounded=0;orthogonalLoop=1;jettySize=auto;html=1;" parent="1" source="SbawjOaqeIdmIskxYOFH-18" target="MFxGl4JG-XU4L95opN_a-1" edge="1">
          <mxGeometry relative="1" as="geometry" />
        </mxCell>
        <mxCell id="SbawjOaqeIdmIskxYOFH-18" value="انتخاب گزینه ثبت نوبت" style="rounded=1;whiteSpace=wrap;html=1;fillColor=#fff2cc;strokeColor=#d6b656;" parent="1" vertex="1">
          <mxGeometry x="363.12" y="1530" width="120" height="60" as="geometry" />
        </mxCell>
        <mxCell id="MFxGl4JG-XU4L95opN_a-1" value="" style="ellipse;html=1;shape=startState;fillColor=#000000;strokeColor=#ff0000;" parent="1" vertex="1">
          <mxGeometry x="408.12" y="1644" width="30" height="30" as="geometry" />
        </mxCell>
        <mxCell id="mVV5yHNJIqFKoMf0bzYv-1" value="&lt;font style=&quot;font-size: 30px;&quot; color=&quot;#ff2e9d&quot; face=&quot;Tahoma&quot;&gt;ثبت نوبت&lt;/font&gt;" style="text;html=1;align=center;verticalAlign=middle;resizable=0;points=[];autosize=1;strokeColor=none;fillColor=none;" parent="1" vertex="1">
          <mxGeometry x="106" y="30" width="133" height="48" as="geometry" />
        </mxCell>
        <mxCell id="fAr6naG9dqqdf6O7NM8n-6" value="انتخاب گزینه درخواست نوبت" style="rounded=1;whiteSpace=wrap;html=1;fillColor=#fff2cc;strokeColor=#d6b656;" parent="1" vertex="1">
          <mxGeometry x="232" y="686" width="120" height="60" as="geometry" />
        </mxCell>
      </root>
    </mxGraphModel>
  </diagram>
  <diagram id="VR30BGKvJnrLNT1NmAO3" name="ثبت‌نظر">
    <mxGraphModel dx="924" dy="855" grid="0" gridSize="10" guides="1" tooltips="1" connect="1" arrows="1" fold="1" page="1" pageScale="1" pageWidth="850" pageHeight="1100" math="0" shadow="0">
      <root>
        <mxCell id="0" />
        <mxCell id="1" parent="0" />
        <mxCell id="Qh9AhKG1o2BDEaIBMA0E-15" style="edgeStyle=orthogonalEdgeStyle;rounded=0;orthogonalLoop=1;jettySize=auto;html=1;entryX=0;entryY=0.5;entryDx=0;entryDy=0;" parent="1" source="6g6nurmHRTCGuYRDILE0-4" edge="1">
          <mxGeometry relative="1" as="geometry">
            <mxPoint x="587" y="827" as="targetPoint" />
          </mxGeometry>
        </mxCell>
        <mxCell id="Qh9AhKG1o2BDEaIBMA0E-18" value="خیر" style="edgeLabel;html=1;align=center;verticalAlign=middle;resizable=0;points=[];" parent="Qh9AhKG1o2BDEaIBMA0E-15" vertex="1" connectable="0">
          <mxGeometry x="0.0126" y="-1" relative="1" as="geometry">
            <mxPoint as="offset" />
          </mxGeometry>
        </mxCell>
        <mxCell id="Qh9AhKG1o2BDEaIBMA0E-16" style="edgeStyle=orthogonalEdgeStyle;rounded=0;orthogonalLoop=1;jettySize=auto;html=1;entryX=0.5;entryY=0;entryDx=0;entryDy=0;" parent="1" source="6g6nurmHRTCGuYRDILE0-4" target="Qh9AhKG1o2BDEaIBMA0E-11" edge="1">
          <mxGeometry relative="1" as="geometry" />
        </mxCell>
        <mxCell id="Qh9AhKG1o2BDEaIBMA0E-20" value="بله" style="edgeLabel;html=1;align=center;verticalAlign=middle;resizable=0;points=[];" parent="Qh9AhKG1o2BDEaIBMA0E-16" vertex="1" connectable="0">
          <mxGeometry x="-0.1439" relative="1" as="geometry">
            <mxPoint as="offset" />
          </mxGeometry>
        </mxCell>
        <mxCell id="6g6nurmHRTCGuYRDILE0-4" value="سابقه ویزیت توسط پزشک انتخاب شده" style="rhombus;whiteSpace=wrap;html=1;fillColor=#dae8fc;strokeColor=#6c8ebf;" parent="1" vertex="1">
          <mxGeometry x="338.62" y="787" width="169" height="80" as="geometry" />
        </mxCell>
        <mxCell id="Qh9AhKG1o2BDEaIBMA0E-1" style="edgeStyle=orthogonalEdgeStyle;rounded=0;orthogonalLoop=1;jettySize=auto;html=1;entryX=0.5;entryY=0;entryDx=0;entryDy=0;" parent="1" target="Qh9AhKG1o2BDEaIBMA0E-4" edge="1">
          <mxGeometry relative="1" as="geometry">
            <mxPoint x="423.1199999999999" y="163.00000000000023" as="sourcePoint" />
            <Array as="points">
              <mxPoint x="423" y="191" />
              <mxPoint x="423" y="191" />
            </Array>
          </mxGeometry>
        </mxCell>
        <mxCell id="Qh9AhKG1o2BDEaIBMA0E-2" value="" style="ellipse;html=1;shape=startState;fillColor=#000000;strokeColor=#ff0000;" parent="1" vertex="1">
          <mxGeometry x="408.12" y="20" width="30" height="30" as="geometry" />
        </mxCell>
        <mxCell id="Qh9AhKG1o2BDEaIBMA0E-3" style="edgeStyle=orthogonalEdgeStyle;rounded=0;orthogonalLoop=1;jettySize=auto;html=1;entryX=0.5;entryY=0;entryDx=0;entryDy=0;" parent="1" source="Qh9AhKG1o2BDEaIBMA0E-4" target="Qh9AhKG1o2BDEaIBMA0E-6" edge="1">
          <mxGeometry relative="1" as="geometry" />
        </mxCell>
        <mxCell id="Qh9AhKG1o2BDEaIBMA0E-4" value="انتخاب گزینه پزشکان" style="rounded=1;whiteSpace=wrap;html=1;fillColor=#fff2cc;strokeColor=#d6b656;" parent="1" vertex="1">
          <mxGeometry x="363.12" y="217" width="120" height="60" as="geometry" />
        </mxCell>
        <mxCell id="Qh9AhKG1o2BDEaIBMA0E-5" style="edgeStyle=orthogonalEdgeStyle;rounded=0;orthogonalLoop=1;jettySize=auto;html=1;entryX=0.5;entryY=0;entryDx=0;entryDy=0;" parent="1" source="Qh9AhKG1o2BDEaIBMA0E-6" target="Qh9AhKG1o2BDEaIBMA0E-8" edge="1">
          <mxGeometry relative="1" as="geometry" />
        </mxCell>
        <mxCell id="Qh9AhKG1o2BDEaIBMA0E-6" value="انتخاب پزشک مورد نظر" style="rounded=1;whiteSpace=wrap;html=1;fillColor=#fff2cc;strokeColor=#d6b656;" parent="1" vertex="1">
          <mxGeometry x="363.12" y="331" width="120" height="60" as="geometry" />
        </mxCell>
        <mxCell id="Qh9AhKG1o2BDEaIBMA0E-10" style="edgeStyle=orthogonalEdgeStyle;rounded=0;orthogonalLoop=1;jettySize=auto;html=1;entryX=0.5;entryY=0;entryDx=0;entryDy=0;" parent="1" source="Qh9AhKG1o2BDEaIBMA0E-8" target="Qh9AhKG1o2BDEaIBMA0E-9" edge="1">
          <mxGeometry relative="1" as="geometry" />
        </mxCell>
        <mxCell id="Qh9AhKG1o2BDEaIBMA0E-8" value="ورود به پروفایل پزشک" style="rounded=1;whiteSpace=wrap;html=1;fillColor=#fff2cc;strokeColor=#d6b656;" parent="1" vertex="1">
          <mxGeometry x="363.12" y="445" width="120" height="60" as="geometry" />
        </mxCell>
        <mxCell id="p8ImAUCRDZYUJDjn4iX5-1" value="" style="edgeStyle=orthogonalEdgeStyle;rounded=0;orthogonalLoop=1;jettySize=auto;html=1;" parent="1" source="Qh9AhKG1o2BDEaIBMA0E-9" target="Qh9AhKG1o2BDEaIBMA0E-12" edge="1">
          <mxGeometry relative="1" as="geometry" />
        </mxCell>
        <mxCell id="Qh9AhKG1o2BDEaIBMA0E-9" value="وارد کردن نظر خود در بخش نظرات" style="rounded=1;whiteSpace=wrap;html=1;fillColor=#fff2cc;strokeColor=#d6b656;" parent="1" vertex="1">
          <mxGeometry x="363.12" y="559" width="120" height="60" as="geometry" />
        </mxCell>
        <mxCell id="Qh9AhKG1o2BDEaIBMA0E-11" value="ثبت شدن نظر" style="rounded=1;whiteSpace=wrap;html=1;fillColor=#fff2cc;strokeColor=#d6b656;" parent="1" vertex="1">
          <mxGeometry x="363.12" y="921" width="120" height="60" as="geometry" />
        </mxCell>
        <mxCell id="Qh9AhKG1o2BDEaIBMA0E-17" style="edgeStyle=orthogonalEdgeStyle;rounded=0;orthogonalLoop=1;jettySize=auto;html=1;entryX=0.5;entryY=0;entryDx=0;entryDy=0;" parent="1" source="Qh9AhKG1o2BDEaIBMA0E-12" target="6g6nurmHRTCGuYRDILE0-4" edge="1">
          <mxGeometry relative="1" as="geometry" />
        </mxCell>
        <mxCell id="Qh9AhKG1o2BDEaIBMA0E-12" value="انتخاب گزینه ثبت نظر" style="rounded=1;whiteSpace=wrap;html=1;fillColor=#fff2cc;strokeColor=#d6b656;" parent="1" vertex="1">
          <mxGeometry x="363.12" y="673" width="120" height="60" as="geometry" />
        </mxCell>
        <mxCell id="Qh9AhKG1o2BDEaIBMA0E-13" value="نمایش پیام مناسب و امتناع از ثبت نظر" style="rounded=1;whiteSpace=wrap;html=1;fillColor=#fff2cc;strokeColor=#d6b656;" parent="1" vertex="1">
          <mxGeometry x="587" y="797" width="120" height="60" as="geometry" />
        </mxCell>
        <mxCell id="bIQfzoI7zFbd-5c3XxNh-1" value="&lt;font color=&quot;#ff2e9d&quot; style=&quot;font-size: 41px;&quot; face=&quot;Tahoma&quot;&gt;پنل بیمار&lt;/font&gt;&lt;font style=&quot;font-size: 41px;&quot; face=&quot;_kxpbe5iIvoVPWevJDPW&quot;&gt;&lt;br&gt;&lt;/font&gt;" style="text;html=1;align=center;verticalAlign=middle;resizable=0;points=[];autosize=1;strokeColor=none;fillColor=none;" parent="1" vertex="1">
          <mxGeometry x="630" y="22" width="164" height="64" as="geometry" />
        </mxCell>
        <mxCell id="CL2Syu5yLDVrIiIFVnva-1" value="" style="edgeStyle=orthogonalEdgeStyle;rounded=0;orthogonalLoop=1;jettySize=auto;html=1;" parent="1" edge="1">
          <mxGeometry relative="1" as="geometry">
            <mxPoint x="422.84000000000003" y="48" as="sourcePoint" />
            <mxPoint x="422.84000000000003" y="102" as="targetPoint" />
          </mxGeometry>
        </mxCell>
        <mxCell id="CL2Syu5yLDVrIiIFVnva-2" value="ورود به پنل بیمار" style="rounded=1;whiteSpace=wrap;html=1;fillColor=#fff2cc;strokeColor=#d6b656;" parent="1" vertex="1">
          <mxGeometry x="363.12" y="102" width="120" height="60" as="geometry" />
        </mxCell>
        <mxCell id="ySvL_vwQDyLtGqKLiA_l-1" value="&lt;font style=&quot;font-size: 30px;&quot; color=&quot;#ff2e9d&quot; face=&quot;Tahoma&quot;&gt;ثبت‌نظر&lt;/font&gt;" style="text;html=1;align=center;verticalAlign=middle;resizable=0;points=[];autosize=1;strokeColor=none;fillColor=none;" vertex="1" parent="1">
          <mxGeometry x="119" y="30" width="107" height="48" as="geometry" />
        </mxCell>
      </root>
    </mxGraphModel>
  </diagram>
  <diagram id="fYBQtBkKwtRONmZdYLNy" name="مشاهده نوبت‌‌ها">
    <mxGraphModel dx="924" dy="855" grid="0" gridSize="10" guides="1" tooltips="1" connect="1" arrows="1" fold="1" page="1" pageScale="1" pageWidth="850" pageHeight="1100" math="0" shadow="1">
      <root>
        <mxCell id="0" />
        <mxCell id="1" parent="0" />
        <mxCell id="qfty7je8FE_Bhhk_TK2A-1" style="edgeStyle=orthogonalEdgeStyle;rounded=0;orthogonalLoop=1;jettySize=auto;html=1;entryX=0.5;entryY=0;entryDx=0;entryDy=0;" parent="1" target="qfty7je8FE_Bhhk_TK2A-3" edge="1">
          <mxGeometry relative="1" as="geometry">
            <mxPoint x="423.1199999999999" y="162" as="sourcePoint" />
          </mxGeometry>
        </mxCell>
        <mxCell id="qfty7je8FE_Bhhk_TK2A-2" value="" style="ellipse;html=1;shape=startState;fillColor=#000000;strokeColor=#ff0000;" parent="1" vertex="1">
          <mxGeometry x="408.12" y="18" width="30" height="30" as="geometry" />
        </mxCell>
        <mxCell id="PshtFXwrjTgdQEfkBdOw-3" style="edgeStyle=orthogonalEdgeStyle;rounded=0;orthogonalLoop=1;jettySize=auto;html=1;entryX=0.5;entryY=0;entryDx=0;entryDy=0;" parent="1" source="qfty7je8FE_Bhhk_TK2A-3" target="PshtFXwrjTgdQEfkBdOw-1" edge="1">
          <mxGeometry relative="1" as="geometry" />
        </mxCell>
        <mxCell id="qfty7je8FE_Bhhk_TK2A-3" value="انتخاب گزینه تاریخچه نوبت‌ها" style="rounded=1;whiteSpace=wrap;html=1;fillColor=#fff2cc;strokeColor=#d6b656;" parent="1" vertex="1">
          <mxGeometry x="363.12" y="216" width="120" height="60" as="geometry" />
        </mxCell>
        <mxCell id="PshtFXwrjTgdQEfkBdOw-4" style="edgeStyle=orthogonalEdgeStyle;rounded=0;orthogonalLoop=1;jettySize=auto;html=1;entryX=0.5;entryY=0;entryDx=0;entryDy=0;" parent="1" source="PshtFXwrjTgdQEfkBdOw-1" target="PshtFXwrjTgdQEfkBdOw-2" edge="1">
          <mxGeometry relative="1" as="geometry" />
        </mxCell>
        <mxCell id="PshtFXwrjTgdQEfkBdOw-1" value="انتخاب هر کدام از نوبت‌های پیشین" style="rounded=1;whiteSpace=wrap;html=1;fillColor=#fff2cc;strokeColor=#d6b656;" parent="1" vertex="1">
          <mxGeometry x="363.12" y="330" width="120" height="60" as="geometry" />
        </mxCell>
        <mxCell id="PshtFXwrjTgdQEfkBdOw-2" value="مشاهده تاریخ و زمان هر نوبت و وضعیت ویزیت و گزارش ثبت شده بهیار" style="rounded=1;whiteSpace=wrap;html=1;fillColor=#fff2cc;strokeColor=#d6b656;" parent="1" vertex="1">
          <mxGeometry x="363.12" y="441" width="120" height="60" as="geometry" />
        </mxCell>
        <mxCell id="p2pjblhWBkF-__qh3PdA-1" value="&lt;font color=&quot;#ff2e9d&quot; style=&quot;font-size: 41px;&quot; face=&quot;Tahoma&quot;&gt;پنل بیمار&lt;/font&gt;&lt;font style=&quot;font-size: 41px;&quot; face=&quot;_kxpbe5iIvoVPWevJDPW&quot;&gt;&lt;br&gt;&lt;/font&gt;" style="text;html=1;align=center;verticalAlign=middle;resizable=0;points=[];autosize=1;strokeColor=none;fillColor=none;" parent="1" vertex="1">
          <mxGeometry x="630" y="22" width="164" height="64" as="geometry" />
        </mxCell>
        <mxCell id="Ol53NlB0dFOhmYVWmiuX-1" value="" style="edgeStyle=orthogonalEdgeStyle;rounded=0;orthogonalLoop=1;jettySize=auto;html=1;" parent="1" edge="1">
          <mxGeometry relative="1" as="geometry">
            <mxPoint x="422.84000000000003" y="48" as="sourcePoint" />
            <mxPoint x="422.84000000000003" y="102" as="targetPoint" />
          </mxGeometry>
        </mxCell>
        <mxCell id="Ol53NlB0dFOhmYVWmiuX-2" value="ورود به پنل بیمار" style="rounded=1;whiteSpace=wrap;html=1;fillColor=#fff2cc;strokeColor=#d6b656;" parent="1" vertex="1">
          <mxGeometry x="363.12" y="102" width="120" height="60" as="geometry" />
        </mxCell>
        <mxCell id="CBk2QGhzy953NpFS1q_N-1" value="&lt;font style=&quot;font-size: 30px;&quot; color=&quot;#ff2e9d&quot; face=&quot;Tahoma&quot;&gt;مشاهده نوبت‌‌ها&lt;/font&gt;" style="text;html=1;align=center;verticalAlign=middle;resizable=0;points=[];autosize=1;strokeColor=none;fillColor=none;" vertex="1" parent="1">
          <mxGeometry x="62" y="30" width="221" height="48" as="geometry" />
        </mxCell>
      </root>
    </mxGraphModel>
  </diagram>
  <diagram id="NRDzAdY_Ec7jJUmq1Edi" name="استعلام نسخه">
    <mxGraphModel dx="924" dy="855" grid="0" gridSize="10" guides="1" tooltips="1" connect="1" arrows="1" fold="1" page="1" pageScale="1" pageWidth="850" pageHeight="1100" math="0" shadow="1">
      <root>
        <mxCell id="0" />
        <mxCell id="1" parent="0" />
        <mxCell id="2PzvUG7s70PSUi5LqAIE-1" style="edgeStyle=orthogonalEdgeStyle;rounded=0;orthogonalLoop=1;jettySize=auto;html=1;entryX=0.5;entryY=0;entryDx=0;entryDy=0;" parent="1" target="2PzvUG7s70PSUi5LqAIE-3" edge="1">
          <mxGeometry relative="1" as="geometry">
            <mxPoint x="423.1199999999999" y="166" as="sourcePoint" />
          </mxGeometry>
        </mxCell>
        <mxCell id="2PzvUG7s70PSUi5LqAIE-2" value="" style="ellipse;html=1;shape=startState;fillColor=#000000;strokeColor=#ff0000;" parent="1" vertex="1">
          <mxGeometry x="408.12" y="18" width="30" height="30" as="geometry" />
        </mxCell>
        <mxCell id="jEju3W6k9Q_0HqN9Yv6v-5" style="edgeStyle=orthogonalEdgeStyle;rounded=0;orthogonalLoop=1;jettySize=auto;html=1;entryX=0.5;entryY=0;entryDx=0;entryDy=0;" parent="1" source="2PzvUG7s70PSUi5LqAIE-3" target="jEju3W6k9Q_0HqN9Yv6v-1" edge="1">
          <mxGeometry relative="1" as="geometry" />
        </mxCell>
        <mxCell id="2PzvUG7s70PSUi5LqAIE-3" value="انتخاب گزینه تاریخچه نسخ" style="rounded=1;whiteSpace=wrap;html=1;fillColor=#fff2cc;strokeColor=#d6b656;" parent="1" vertex="1">
          <mxGeometry x="363.12" y="220" width="120" height="60" as="geometry" />
        </mxCell>
        <mxCell id="jEju3W6k9Q_0HqN9Yv6v-8" style="edgeStyle=orthogonalEdgeStyle;rounded=0;orthogonalLoop=1;jettySize=auto;html=1;entryX=0.5;entryY=0;entryDx=0;entryDy=0;" parent="1" source="jEju3W6k9Q_0HqN9Yv6v-1" target="jEju3W6k9Q_0HqN9Yv6v-2" edge="1">
          <mxGeometry relative="1" as="geometry" />
        </mxCell>
        <mxCell id="jEju3W6k9Q_0HqN9Yv6v-1" value="مشاهده نسخه‌ها همراه با وضعیت استعلام" style="rounded=1;whiteSpace=wrap;html=1;fillColor=#fff2cc;strokeColor=#d6b656;" parent="1" vertex="1">
          <mxGeometry x="363.12" y="334" width="120" height="60" as="geometry" />
        </mxCell>
        <mxCell id="jEju3W6k9Q_0HqN9Yv6v-9" style="edgeStyle=orthogonalEdgeStyle;rounded=0;orthogonalLoop=1;jettySize=auto;html=1;entryX=0.5;entryY=0;entryDx=0;entryDy=0;" parent="1" source="jEju3W6k9Q_0HqN9Yv6v-2" target="jEju3W6k9Q_0HqN9Yv6v-3" edge="1">
          <mxGeometry relative="1" as="geometry" />
        </mxCell>
        <mxCell id="jEju3W6k9Q_0HqN9Yv6v-2" value="انتخاب یکی از نسخه ها" style="rounded=1;whiteSpace=wrap;html=1;fillColor=#fff2cc;strokeColor=#d6b656;" parent="1" vertex="1">
          <mxGeometry x="363.12" y="447" width="120" height="60" as="geometry" />
        </mxCell>
        <mxCell id="jEju3W6k9Q_0HqN9Yv6v-3" value="انتخاب گزینه استعلام" style="rounded=1;whiteSpace=wrap;html=1;fillColor=#fff2cc;strokeColor=#d6b656;" parent="1" vertex="1">
          <mxGeometry x="363.12" y="560" width="120" height="60" as="geometry" />
        </mxCell>
        <mxCell id="RYHOe2CSkHWcoygQAZou-2" value="" style="edgeStyle=orthogonalEdgeStyle;rounded=0;orthogonalLoop=1;jettySize=auto;html=1;" parent="1" source="jEju3W6k9Q_0HqN9Yv6v-4" target="RYHOe2CSkHWcoygQAZou-1" edge="1">
          <mxGeometry relative="1" as="geometry" />
        </mxCell>
        <mxCell id="jEju3W6k9Q_0HqN9Yv6v-4" value="انتخاب یک یا چند داروخانه مورد نظر برای استعلام‌گیری" style="rounded=1;whiteSpace=wrap;html=1;fillColor=#fff2cc;strokeColor=#d6b656;" parent="1" vertex="1">
          <mxGeometry x="361" y="673" width="120" height="60" as="geometry" />
        </mxCell>
        <mxCell id="jEju3W6k9Q_0HqN9Yv6v-10" style="edgeStyle=orthogonalEdgeStyle;rounded=0;orthogonalLoop=1;jettySize=auto;html=1;entryX=0.514;entryY=0.044;entryDx=0;entryDy=0;entryPerimeter=0;" parent="1" source="jEju3W6k9Q_0HqN9Yv6v-3" target="jEju3W6k9Q_0HqN9Yv6v-4" edge="1">
          <mxGeometry relative="1" as="geometry" />
        </mxCell>
        <mxCell id="RYHOe2CSkHWcoygQAZou-1" value="ثبت&amp;nbsp; درخواست و انتظار برای پاسخ داروخانه" style="rounded=1;whiteSpace=wrap;html=1;fillColor=#fff2cc;strokeColor=#d6b656;" parent="1" vertex="1">
          <mxGeometry x="361" y="813" width="120" height="60" as="geometry" />
        </mxCell>
        <mxCell id="5VJXVE0ThPsyUYcKVj7Z-1" value="&lt;font color=&quot;#ff2e9d&quot; style=&quot;font-size: 41px;&quot; face=&quot;Tahoma&quot;&gt;پنل بیمار&lt;/font&gt;&lt;font style=&quot;font-size: 41px;&quot; face=&quot;_kxpbe5iIvoVPWevJDPW&quot;&gt;&lt;br&gt;&lt;/font&gt;" style="text;html=1;align=center;verticalAlign=middle;resizable=0;points=[];autosize=1;strokeColor=none;fillColor=none;" parent="1" vertex="1">
          <mxGeometry x="630" y="22" width="164" height="64" as="geometry" />
        </mxCell>
        <mxCell id="GVvftrPesZw9y2DIc1Ox-1" value="" style="edgeStyle=orthogonalEdgeStyle;rounded=0;orthogonalLoop=1;jettySize=auto;html=1;" parent="1" edge="1">
          <mxGeometry relative="1" as="geometry">
            <mxPoint x="422.72" y="48" as="sourcePoint" />
            <mxPoint x="422.72" y="102" as="targetPoint" />
          </mxGeometry>
        </mxCell>
        <mxCell id="GVvftrPesZw9y2DIc1Ox-2" value="ورود به پنل بیمار" style="rounded=1;whiteSpace=wrap;html=1;fillColor=#fff2cc;strokeColor=#d6b656;" parent="1" vertex="1">
          <mxGeometry x="363" y="102" width="120" height="60" as="geometry" />
        </mxCell>
        <mxCell id="9zg7kvRJRSSPQ9pWpA5q-1" value="&lt;font style=&quot;font-size: 30px;&quot; color=&quot;#ff2e9d&quot; face=&quot;Tahoma&quot;&gt;استعلام نسخه&lt;/font&gt;" style="text;html=1;align=center;verticalAlign=middle;resizable=0;points=[];autosize=1;strokeColor=none;fillColor=none;" vertex="1" parent="1">
          <mxGeometry x="69" y="30" width="206" height="48" as="geometry" />
        </mxCell>
      </root>
    </mxGraphModel>
  </diagram>
  <diagram id="a3zZ5LbOgHyX5Z-fwwBG" name="احراز هویت">
    <mxGraphModel dx="1087" dy="1006" grid="0" gridSize="10" guides="1" tooltips="1" connect="1" arrows="1" fold="1" page="1" pageScale="1" pageWidth="850" pageHeight="1100" math="0" shadow="1">
      <root>
        <mxCell id="0" />
        <mxCell id="1" parent="0" />
        <mxCell id="kL8uHqbbSjExB8aNuhgu-1" value="" style="shape=table;startSize=0;container=1;collapsible=0;childLayout=tableLayout;fontSize=16;" parent="1" vertex="1">
          <mxGeometry x="85" y="118" width="676" height="968" as="geometry" />
        </mxCell>
        <mxCell id="kL8uHqbbSjExB8aNuhgu-2" value="" style="shape=tableRow;horizontal=0;startSize=0;swimlaneHead=0;swimlaneBody=0;strokeColor=inherit;top=0;left=0;bottom=0;right=0;collapsible=0;dropTarget=0;fillColor=none;points=[[0,0.5],[1,0.5]];portConstraint=eastwest;fontSize=16;" parent="kL8uHqbbSjExB8aNuhgu-1" vertex="1">
          <mxGeometry width="676" height="103" as="geometry" />
        </mxCell>
        <mxCell id="kL8uHqbbSjExB8aNuhgu-3" value="بیمار" style="shape=partialRectangle;html=1;whiteSpace=wrap;connectable=0;strokeColor=inherit;overflow=hidden;fillColor=none;top=0;left=0;bottom=0;right=0;pointerEvents=1;fontSize=16;" parent="kL8uHqbbSjExB8aNuhgu-2" vertex="1">
          <mxGeometry width="226" height="103" as="geometry">
            <mxRectangle width="226" height="103" as="alternateBounds" />
          </mxGeometry>
        </mxCell>
        <mxCell id="kL8uHqbbSjExB8aNuhgu-4" value="پزشک" style="shape=partialRectangle;html=1;whiteSpace=wrap;connectable=0;strokeColor=inherit;overflow=hidden;fillColor=none;top=0;left=0;bottom=0;right=0;pointerEvents=1;fontSize=16;" parent="kL8uHqbbSjExB8aNuhgu-2" vertex="1">
          <mxGeometry x="226" width="224" height="103" as="geometry">
            <mxRectangle width="224" height="103" as="alternateBounds" />
          </mxGeometry>
        </mxCell>
        <mxCell id="kL8uHqbbSjExB8aNuhgu-5" value="بهیار" style="shape=partialRectangle;html=1;whiteSpace=wrap;connectable=0;strokeColor=inherit;overflow=hidden;fillColor=none;top=0;left=0;bottom=0;right=0;pointerEvents=1;fontSize=16;" parent="kL8uHqbbSjExB8aNuhgu-2" vertex="1">
          <mxGeometry x="450" width="226" height="103" as="geometry">
            <mxRectangle width="226" height="103" as="alternateBounds" />
          </mxGeometry>
        </mxCell>
        <mxCell id="kL8uHqbbSjExB8aNuhgu-10" value="" style="shape=tableRow;horizontal=0;startSize=0;swimlaneHead=0;swimlaneBody=0;strokeColor=inherit;top=0;left=0;bottom=0;right=0;collapsible=0;dropTarget=0;fillColor=none;points=[[0,0.5],[1,0.5]];portConstraint=eastwest;fontSize=16;" parent="kL8uHqbbSjExB8aNuhgu-1" vertex="1">
          <mxGeometry y="103" width="676" height="865" as="geometry" />
        </mxCell>
        <mxCell id="kL8uHqbbSjExB8aNuhgu-11" value="" style="shape=partialRectangle;html=1;whiteSpace=wrap;connectable=0;strokeColor=inherit;overflow=hidden;fillColor=none;top=0;left=0;bottom=0;right=0;pointerEvents=1;fontSize=16;" parent="kL8uHqbbSjExB8aNuhgu-10" vertex="1">
          <mxGeometry width="226" height="865" as="geometry">
            <mxRectangle width="226" height="865" as="alternateBounds" />
          </mxGeometry>
        </mxCell>
        <mxCell id="kL8uHqbbSjExB8aNuhgu-12" value="" style="shape=partialRectangle;html=1;whiteSpace=wrap;connectable=0;strokeColor=inherit;overflow=hidden;fillColor=none;top=0;left=0;bottom=0;right=0;pointerEvents=1;fontSize=16;" parent="kL8uHqbbSjExB8aNuhgu-10" vertex="1">
          <mxGeometry x="226" width="224" height="865" as="geometry">
            <mxRectangle width="224" height="865" as="alternateBounds" />
          </mxGeometry>
        </mxCell>
        <mxCell id="kL8uHqbbSjExB8aNuhgu-13" value="" style="shape=partialRectangle;html=1;whiteSpace=wrap;connectable=0;strokeColor=inherit;overflow=hidden;fillColor=none;top=0;left=0;bottom=0;right=0;pointerEvents=1;fontSize=16;" parent="kL8uHqbbSjExB8aNuhgu-10" vertex="1">
          <mxGeometry x="450" width="226" height="865" as="geometry">
            <mxRectangle width="226" height="865" as="alternateBounds" />
          </mxGeometry>
        </mxCell>
        <mxCell id="kL8uHqbbSjExB8aNuhgu-15" style="edgeStyle=orthogonalEdgeStyle;rounded=0;orthogonalLoop=1;jettySize=auto;html=1;entryX=0.5;entryY=0;entryDx=0;entryDy=0;" parent="1" source="kL8uHqbbSjExB8aNuhgu-16" target="kL8uHqbbSjExB8aNuhgu-17" edge="1">
          <mxGeometry relative="1" as="geometry" />
        </mxCell>
        <mxCell id="kL8uHqbbSjExB8aNuhgu-16" value="" style="ellipse;html=1;shape=startState;fillColor=#000000;strokeColor=#ff0000;" parent="1" vertex="1">
          <mxGeometry x="185" y="229" width="30" height="30" as="geometry" />
        </mxCell>
        <mxCell id="kL8uHqbbSjExB8aNuhgu-31" style="edgeStyle=orthogonalEdgeStyle;rounded=0;orthogonalLoop=1;jettySize=auto;html=1;entryX=0.5;entryY=0;entryDx=0;entryDy=0;" parent="1" source="kL8uHqbbSjExB8aNuhgu-17" target="kL8uHqbbSjExB8aNuhgu-27" edge="1">
          <mxGeometry relative="1" as="geometry" />
        </mxCell>
        <mxCell id="kL8uHqbbSjExB8aNuhgu-17" value="انتخاب گزینه احراز هویت در صورت وجود" style="rounded=1;whiteSpace=wrap;html=1;fillColor=#fff2cc;strokeColor=#d6b656;" parent="1" vertex="1">
          <mxGeometry x="140" y="313" width="120" height="60" as="geometry" />
        </mxCell>
        <mxCell id="kL8uHqbbSjExB8aNuhgu-21" style="edgeStyle=orthogonalEdgeStyle;rounded=0;orthogonalLoop=1;jettySize=auto;html=1;entryX=0.5;entryY=0;entryDx=0;entryDy=0;" parent="1" source="kL8uHqbbSjExB8aNuhgu-22" target="kL8uHqbbSjExB8aNuhgu-23" edge="1">
          <mxGeometry relative="1" as="geometry" />
        </mxCell>
        <mxCell id="kL8uHqbbSjExB8aNuhgu-22" value="" style="ellipse;html=1;shape=startState;fillColor=#000000;strokeColor=#ff0000;" parent="1" vertex="1">
          <mxGeometry x="413" y="229" width="30" height="30" as="geometry" />
        </mxCell>
        <mxCell id="kL8uHqbbSjExB8aNuhgu-33" style="edgeStyle=orthogonalEdgeStyle;rounded=0;orthogonalLoop=1;jettySize=auto;html=1;entryX=0.5;entryY=0;entryDx=0;entryDy=0;" parent="1" source="kL8uHqbbSjExB8aNuhgu-23" target="kL8uHqbbSjExB8aNuhgu-28" edge="1">
          <mxGeometry relative="1" as="geometry" />
        </mxCell>
        <mxCell id="kL8uHqbbSjExB8aNuhgu-23" value="انتخاب گزینه احراز هویت در صورت وجود" style="rounded=1;whiteSpace=wrap;html=1;fillColor=#fff2cc;strokeColor=#d6b656;" parent="1" vertex="1">
          <mxGeometry x="368" y="313" width="120" height="60" as="geometry" />
        </mxCell>
        <mxCell id="kL8uHqbbSjExB8aNuhgu-24" style="edgeStyle=orthogonalEdgeStyle;rounded=0;orthogonalLoop=1;jettySize=auto;html=1;entryX=0.5;entryY=0;entryDx=0;entryDy=0;" parent="1" source="kL8uHqbbSjExB8aNuhgu-25" target="kL8uHqbbSjExB8aNuhgu-26" edge="1">
          <mxGeometry relative="1" as="geometry" />
        </mxCell>
        <mxCell id="kL8uHqbbSjExB8aNuhgu-25" value="" style="ellipse;html=1;shape=startState;fillColor=#000000;strokeColor=#ff0000;" parent="1" vertex="1">
          <mxGeometry x="635" y="229" width="30" height="30" as="geometry" />
        </mxCell>
        <mxCell id="kL8uHqbbSjExB8aNuhgu-34" style="edgeStyle=orthogonalEdgeStyle;rounded=0;orthogonalLoop=1;jettySize=auto;html=1;entryX=0.5;entryY=0;entryDx=0;entryDy=0;" parent="1" source="kL8uHqbbSjExB8aNuhgu-26" target="kL8uHqbbSjExB8aNuhgu-30" edge="1">
          <mxGeometry relative="1" as="geometry" />
        </mxCell>
        <mxCell id="kL8uHqbbSjExB8aNuhgu-26" value="انتخاب گزینه احراز هویت در صورت وجود" style="rounded=1;whiteSpace=wrap;html=1;fillColor=#fff2cc;strokeColor=#d6b656;" parent="1" vertex="1">
          <mxGeometry x="590" y="313" width="120" height="60" as="geometry" />
        </mxCell>
        <mxCell id="kL8uHqbbSjExB8aNuhgu-32" style="edgeStyle=orthogonalEdgeStyle;rounded=0;orthogonalLoop=1;jettySize=auto;html=1;entryX=0.5;entryY=0;entryDx=0;entryDy=0;" parent="1" source="kL8uHqbbSjExB8aNuhgu-27" target="kL8uHqbbSjExB8aNuhgu-29" edge="1">
          <mxGeometry relative="1" as="geometry" />
        </mxCell>
        <mxCell id="kL8uHqbbSjExB8aNuhgu-27" value="آپلود پشت کارت‌ملی" style="rounded=1;whiteSpace=wrap;html=1;fillColor=#fff2cc;strokeColor=#d6b656;" parent="1" vertex="1">
          <mxGeometry x="140" y="427" width="120" height="60" as="geometry" />
        </mxCell>
        <mxCell id="kL8uHqbbSjExB8aNuhgu-28" value="آپلود گواهی نظام پزشکی" style="rounded=1;whiteSpace=wrap;html=1;fillColor=#fff2cc;strokeColor=#d6b656;" parent="1" vertex="1">
          <mxGeometry x="368" y="427" width="120" height="60" as="geometry" />
        </mxCell>
        <mxCell id="4FaKaW2nBHfDvLFqZ4B9-2" style="edgeStyle=orthogonalEdgeStyle;rounded=0;orthogonalLoop=1;jettySize=auto;html=1;entryX=0.5;entryY=0;entryDx=0;entryDy=0;" parent="1" source="kL8uHqbbSjExB8aNuhgu-29" target="4FaKaW2nBHfDvLFqZ4B9-1" edge="1">
          <mxGeometry relative="1" as="geometry" />
        </mxCell>
        <mxCell id="kL8uHqbbSjExB8aNuhgu-29" value="آپلود روی کارت‌ملی" style="rounded=1;whiteSpace=wrap;html=1;fillColor=#fff2cc;strokeColor=#d6b656;" parent="1" vertex="1">
          <mxGeometry x="140" y="541" width="120" height="60" as="geometry" />
        </mxCell>
        <mxCell id="kL8uHqbbSjExB8aNuhgu-30" value="آپلود مجوز داده شده از سوی مجموعه روان‌سبز" style="rounded=1;whiteSpace=wrap;html=1;fillColor=#fff2cc;strokeColor=#d6b656;" parent="1" vertex="1">
          <mxGeometry x="590" y="427" width="120" height="60" as="geometry" />
        </mxCell>
        <mxCell id="kL8uHqbbSjExB8aNuhgu-35" value="ارسال اطلاعات (انتظار برای ثبت)" style="rounded=1;whiteSpace=wrap;html=1;fillColor=#fff2cc;strokeColor=#d6b656;" parent="1" vertex="1">
          <mxGeometry x="140" y="765" width="120" height="60" as="geometry" />
        </mxCell>
        <mxCell id="4FaKaW2nBHfDvLFqZ4B9-26" style="edgeStyle=orthogonalEdgeStyle;rounded=0;orthogonalLoop=1;jettySize=auto;html=1;entryX=0.5;entryY=0;entryDx=0;entryDy=0;" parent="1" source="kL8uHqbbSjExB8aNuhgu-36" target="4FaKaW2nBHfDvLFqZ4B9-3" edge="1">
          <mxGeometry relative="1" as="geometry" />
        </mxCell>
        <mxCell id="kL8uHqbbSjExB8aNuhgu-36" value="ارسال اطلاعات (انتظار برای ثبت)" style="rounded=1;whiteSpace=wrap;html=1;fillColor=#fff2cc;strokeColor=#d6b656;" parent="1" vertex="1">
          <mxGeometry x="368" y="653" width="120" height="60" as="geometry" />
        </mxCell>
        <mxCell id="kL8uHqbbSjExB8aNuhgu-37" value="ارسال اطلاعات (انتظار برای ثبت)" style="rounded=1;whiteSpace=wrap;html=1;fillColor=#fff2cc;strokeColor=#d6b656;" parent="1" vertex="1">
          <mxGeometry x="589.5" y="654" width="120" height="60" as="geometry" />
        </mxCell>
        <mxCell id="4FaKaW2nBHfDvLFqZ4B9-4" style="edgeStyle=orthogonalEdgeStyle;rounded=0;orthogonalLoop=1;jettySize=auto;html=1;entryX=0.5;entryY=0;entryDx=0;entryDy=0;" parent="1" source="4FaKaW2nBHfDvLFqZ4B9-1" target="kL8uHqbbSjExB8aNuhgu-35" edge="1">
          <mxGeometry relative="1" as="geometry" />
        </mxCell>
        <mxCell id="4FaKaW2nBHfDvLFqZ4B9-24" value="قبول" style="edgeLabel;html=1;align=center;verticalAlign=middle;resizable=0;points=[];" parent="4FaKaW2nBHfDvLFqZ4B9-4" vertex="1" connectable="0">
          <mxGeometry x="-0.068" y="4" relative="1" as="geometry">
            <mxPoint as="offset" />
          </mxGeometry>
        </mxCell>
        <mxCell id="4FaKaW2nBHfDvLFqZ4B9-1" value="اعتبار سنجی حجم داده" style="rhombus;whiteSpace=wrap;html=1;fillColor=#dae8fc;strokeColor=#6c8ebf;" parent="1" vertex="1">
          <mxGeometry x="115.5" y="643" width="169" height="80" as="geometry" />
        </mxCell>
        <mxCell id="4FaKaW2nBHfDvLFqZ4B9-27" style="edgeStyle=orthogonalEdgeStyle;rounded=0;orthogonalLoop=1;jettySize=auto;html=1;entryX=0;entryY=0.5;entryDx=0;entryDy=0;" parent="1" source="4FaKaW2nBHfDvLFqZ4B9-3" target="kL8uHqbbSjExB8aNuhgu-23" edge="1">
          <mxGeometry relative="1" as="geometry">
            <Array as="points">
              <mxPoint x="327" y="802" />
              <mxPoint x="327" y="343" />
            </Array>
          </mxGeometry>
        </mxCell>
        <mxCell id="4FaKaW2nBHfDvLFqZ4B9-28" value="رد" style="edgeLabel;html=1;align=center;verticalAlign=middle;resizable=0;points=[];" parent="4FaKaW2nBHfDvLFqZ4B9-27" vertex="1" connectable="0">
          <mxGeometry x="0.4077" y="-2" relative="1" as="geometry">
            <mxPoint as="offset" />
          </mxGeometry>
        </mxCell>
        <mxCell id="4FaKaW2nBHfDvLFqZ4B9-30" style="edgeStyle=orthogonalEdgeStyle;rounded=0;orthogonalLoop=1;jettySize=auto;html=1;entryX=0.5;entryY=0;entryDx=0;entryDy=0;" parent="1" source="4FaKaW2nBHfDvLFqZ4B9-3" target="4FaKaW2nBHfDvLFqZ4B9-29" edge="1">
          <mxGeometry relative="1" as="geometry" />
        </mxCell>
        <mxCell id="4FaKaW2nBHfDvLFqZ4B9-38" value="قبول" style="edgeLabel;html=1;align=center;verticalAlign=middle;resizable=0;points=[];" parent="4FaKaW2nBHfDvLFqZ4B9-30" vertex="1" connectable="0">
          <mxGeometry x="0.052" y="-3" relative="1" as="geometry">
            <mxPoint as="offset" />
          </mxGeometry>
        </mxCell>
        <mxCell id="4FaKaW2nBHfDvLFqZ4B9-3" value="نتیجه" style="rhombus;whiteSpace=wrap;html=1;fillColor=#dae8fc;strokeColor=#6c8ebf;" parent="1" vertex="1">
          <mxGeometry x="343.25" y="762" width="169" height="80" as="geometry" />
        </mxCell>
        <mxCell id="4FaKaW2nBHfDvLFqZ4B9-6" style="edgeStyle=orthogonalEdgeStyle;rounded=0;orthogonalLoop=1;jettySize=auto;html=1;entryX=1.008;entryY=0.4;entryDx=0;entryDy=0;entryPerimeter=0;" parent="1" target="kL8uHqbbSjExB8aNuhgu-17" edge="1">
          <mxGeometry relative="1" as="geometry">
            <mxPoint x="284.4999999999998" y="684.9999999999999" as="sourcePoint" />
            <mxPoint x="260" y="337.86" as="targetPoint" />
            <Array as="points">
              <mxPoint x="295" y="685" />
              <mxPoint x="295" y="337" />
            </Array>
          </mxGeometry>
        </mxCell>
        <mxCell id="4FaKaW2nBHfDvLFqZ4B9-23" value="رد" style="edgeLabel;html=1;align=center;verticalAlign=middle;resizable=0;points=[];" parent="4FaKaW2nBHfDvLFqZ4B9-6" vertex="1" connectable="0">
          <mxGeometry x="-0.1041" y="-2" relative="1" as="geometry">
            <mxPoint as="offset" />
          </mxGeometry>
        </mxCell>
        <mxCell id="4FaKaW2nBHfDvLFqZ4B9-7" style="edgeStyle=orthogonalEdgeStyle;rounded=0;orthogonalLoop=1;jettySize=auto;html=1;entryX=0.5;entryY=0;entryDx=0;entryDy=0;" parent="1" target="4FaKaW2nBHfDvLFqZ4B9-9" edge="1">
          <mxGeometry relative="1" as="geometry">
            <mxPoint x="427.75" y="488" as="sourcePoint" />
          </mxGeometry>
        </mxCell>
        <mxCell id="4FaKaW2nBHfDvLFqZ4B9-8" style="edgeStyle=orthogonalEdgeStyle;rounded=0;orthogonalLoop=1;jettySize=auto;html=1;entryX=0.5;entryY=0;entryDx=0;entryDy=0;" parent="1" source="4FaKaW2nBHfDvLFqZ4B9-9" edge="1">
          <mxGeometry relative="1" as="geometry">
            <mxPoint x="427.75" y="652" as="targetPoint" />
          </mxGeometry>
        </mxCell>
        <mxCell id="4FaKaW2nBHfDvLFqZ4B9-22" value="قبول" style="edgeLabel;html=1;align=center;verticalAlign=middle;resizable=0;points=[];" parent="4FaKaW2nBHfDvLFqZ4B9-8" vertex="1" connectable="0">
          <mxGeometry x="-0.0936" y="-1" relative="1" as="geometry">
            <mxPoint as="offset" />
          </mxGeometry>
        </mxCell>
        <mxCell id="4FaKaW2nBHfDvLFqZ4B9-9" value="اعتبار سنجی حجم داده" style="rhombus;whiteSpace=wrap;html=1;fillColor=#dae8fc;strokeColor=#6c8ebf;" parent="1" vertex="1">
          <mxGeometry x="343.25" y="530" width="169" height="80" as="geometry" />
        </mxCell>
        <mxCell id="4FaKaW2nBHfDvLFqZ4B9-10" style="edgeStyle=orthogonalEdgeStyle;rounded=0;orthogonalLoop=1;jettySize=auto;html=1;entryX=1.007;entryY=0.406;entryDx=0;entryDy=0;entryPerimeter=0;" parent="1" source="4FaKaW2nBHfDvLFqZ4B9-9" edge="1">
          <mxGeometry relative="1" as="geometry">
            <mxPoint x="488.75" y="338" as="targetPoint" />
            <Array as="points">
              <mxPoint x="522.75" y="570" />
              <mxPoint x="522.75" y="338" />
            </Array>
          </mxGeometry>
        </mxCell>
        <mxCell id="4FaKaW2nBHfDvLFqZ4B9-21" value="رد" style="edgeLabel;html=1;align=center;verticalAlign=middle;resizable=0;points=[];" parent="4FaKaW2nBHfDvLFqZ4B9-10" vertex="1" connectable="0">
          <mxGeometry x="-0.085" y="1" relative="1" as="geometry">
            <mxPoint as="offset" />
          </mxGeometry>
        </mxCell>
        <mxCell id="4FaKaW2nBHfDvLFqZ4B9-15" style="edgeStyle=orthogonalEdgeStyle;rounded=0;orthogonalLoop=1;jettySize=auto;html=1;entryX=0.5;entryY=0;entryDx=0;entryDy=0;" parent="1" target="4FaKaW2nBHfDvLFqZ4B9-17" edge="1">
          <mxGeometry relative="1" as="geometry">
            <mxPoint x="649.5" y="489" as="sourcePoint" />
          </mxGeometry>
        </mxCell>
        <mxCell id="4FaKaW2nBHfDvLFqZ4B9-16" style="edgeStyle=orthogonalEdgeStyle;rounded=0;orthogonalLoop=1;jettySize=auto;html=1;entryX=0.5;entryY=0;entryDx=0;entryDy=0;" parent="1" source="4FaKaW2nBHfDvLFqZ4B9-17" edge="1">
          <mxGeometry relative="1" as="geometry">
            <mxPoint x="649.5" y="653" as="targetPoint" />
          </mxGeometry>
        </mxCell>
        <mxCell id="4FaKaW2nBHfDvLFqZ4B9-20" value="قبول" style="edgeLabel;html=1;align=center;verticalAlign=middle;resizable=0;points=[];" parent="4FaKaW2nBHfDvLFqZ4B9-16" vertex="1" connectable="0">
          <mxGeometry x="-0.0111" y="-2" relative="1" as="geometry">
            <mxPoint x="-2" y="-1" as="offset" />
          </mxGeometry>
        </mxCell>
        <mxCell id="4FaKaW2nBHfDvLFqZ4B9-17" value="اعتبار سنجی حجم داده" style="rhombus;whiteSpace=wrap;html=1;fillColor=#dae8fc;strokeColor=#6c8ebf;" parent="1" vertex="1">
          <mxGeometry x="565" y="531" width="169" height="80" as="geometry" />
        </mxCell>
        <mxCell id="4FaKaW2nBHfDvLFqZ4B9-18" style="edgeStyle=orthogonalEdgeStyle;rounded=0;orthogonalLoop=1;jettySize=auto;html=1;entryX=1.007;entryY=0.406;entryDx=0;entryDy=0;entryPerimeter=0;" parent="1" source="4FaKaW2nBHfDvLFqZ4B9-17" edge="1">
          <mxGeometry relative="1" as="geometry">
            <mxPoint x="710.5" y="339" as="targetPoint" />
            <Array as="points">
              <mxPoint x="744.5" y="571" />
              <mxPoint x="744.5" y="339" />
            </Array>
          </mxGeometry>
        </mxCell>
        <mxCell id="4FaKaW2nBHfDvLFqZ4B9-19" value="رد" style="edgeLabel;html=1;align=center;verticalAlign=middle;resizable=0;points=[];" parent="4FaKaW2nBHfDvLFqZ4B9-18" vertex="1" connectable="0">
          <mxGeometry x="-0.1252" y="3" relative="1" as="geometry">
            <mxPoint as="offset" />
          </mxGeometry>
        </mxCell>
        <mxCell id="4FaKaW2nBHfDvLFqZ4B9-29" value="تکمیل احراز هویت" style="rounded=1;whiteSpace=wrap;html=1;fillColor=#fff2cc;strokeColor=#d6b656;" parent="1" vertex="1">
          <mxGeometry x="368" y="885" width="120" height="60" as="geometry" />
        </mxCell>
        <mxCell id="4FaKaW2nBHfDvLFqZ4B9-31" style="edgeStyle=orthogonalEdgeStyle;rounded=0;orthogonalLoop=1;jettySize=auto;html=1;entryX=0.5;entryY=0;entryDx=0;entryDy=0;" parent="1" target="4FaKaW2nBHfDvLFqZ4B9-35" edge="1">
          <mxGeometry relative="1" as="geometry">
            <mxPoint x="649.75" y="715" as="sourcePoint" />
          </mxGeometry>
        </mxCell>
        <mxCell id="4FaKaW2nBHfDvLFqZ4B9-32" style="edgeStyle=orthogonalEdgeStyle;rounded=0;orthogonalLoop=1;jettySize=auto;html=1;entryX=0;entryY=0.5;entryDx=0;entryDy=0;" parent="1" source="4FaKaW2nBHfDvLFqZ4B9-35" edge="1">
          <mxGeometry relative="1" as="geometry">
            <mxPoint x="589.75" y="345" as="targetPoint" />
            <Array as="points">
              <mxPoint x="548.75" y="804" />
              <mxPoint x="548.75" y="345" />
            </Array>
          </mxGeometry>
        </mxCell>
        <mxCell id="4FaKaW2nBHfDvLFqZ4B9-33" value="رد" style="edgeLabel;html=1;align=center;verticalAlign=middle;resizable=0;points=[];" parent="4FaKaW2nBHfDvLFqZ4B9-32" vertex="1" connectable="0">
          <mxGeometry x="0.4077" y="-2" relative="1" as="geometry">
            <mxPoint as="offset" />
          </mxGeometry>
        </mxCell>
        <mxCell id="4FaKaW2nBHfDvLFqZ4B9-34" style="edgeStyle=orthogonalEdgeStyle;rounded=0;orthogonalLoop=1;jettySize=auto;html=1;entryX=0.5;entryY=0;entryDx=0;entryDy=0;" parent="1" source="4FaKaW2nBHfDvLFqZ4B9-35" target="4FaKaW2nBHfDvLFqZ4B9-36" edge="1">
          <mxGeometry relative="1" as="geometry" />
        </mxCell>
        <mxCell id="4FaKaW2nBHfDvLFqZ4B9-37" value="قبول" style="edgeLabel;html=1;align=center;verticalAlign=middle;resizable=0;points=[];" parent="4FaKaW2nBHfDvLFqZ4B9-34" vertex="1" connectable="0">
          <mxGeometry x="-0.1397" y="-1" relative="1" as="geometry">
            <mxPoint as="offset" />
          </mxGeometry>
        </mxCell>
        <mxCell id="4FaKaW2nBHfDvLFqZ4B9-35" value="نتیجه" style="rhombus;whiteSpace=wrap;html=1;fillColor=#dae8fc;strokeColor=#6c8ebf;" parent="1" vertex="1">
          <mxGeometry x="565" y="764" width="169" height="80" as="geometry" />
        </mxCell>
        <mxCell id="4FaKaW2nBHfDvLFqZ4B9-36" value="تکمیل احراز هویت" style="rounded=1;whiteSpace=wrap;html=1;fillColor=#fff2cc;strokeColor=#d6b656;" parent="1" vertex="1">
          <mxGeometry x="589.75" y="887" width="120" height="60" as="geometry" />
        </mxCell>
        <mxCell id="4FaKaW2nBHfDvLFqZ4B9-39" style="edgeStyle=orthogonalEdgeStyle;rounded=0;orthogonalLoop=1;jettySize=auto;html=1;entryX=0.5;entryY=0;entryDx=0;entryDy=0;" parent="1" target="4FaKaW2nBHfDvLFqZ4B9-43" edge="1">
          <mxGeometry relative="1" as="geometry">
            <mxPoint x="200.25" y="824" as="sourcePoint" />
          </mxGeometry>
        </mxCell>
        <mxCell id="4FaKaW2nBHfDvLFqZ4B9-40" style="edgeStyle=orthogonalEdgeStyle;rounded=0;orthogonalLoop=1;jettySize=auto;html=1;entryX=0.001;entryY=0.421;entryDx=0;entryDy=0;entryPerimeter=0;" parent="1" source="4FaKaW2nBHfDvLFqZ4B9-43" target="kL8uHqbbSjExB8aNuhgu-17" edge="1">
          <mxGeometry relative="1" as="geometry">
            <mxPoint x="140.25" y="454" as="targetPoint" />
            <Array as="points">
              <mxPoint x="99" y="913" />
              <mxPoint x="99" y="338" />
              <mxPoint x="140" y="338" />
            </Array>
          </mxGeometry>
        </mxCell>
        <mxCell id="4FaKaW2nBHfDvLFqZ4B9-41" value="رد" style="edgeLabel;html=1;align=center;verticalAlign=middle;resizable=0;points=[];" parent="4FaKaW2nBHfDvLFqZ4B9-40" vertex="1" connectable="0">
          <mxGeometry x="0.4077" y="-2" relative="1" as="geometry">
            <mxPoint as="offset" />
          </mxGeometry>
        </mxCell>
        <mxCell id="4FaKaW2nBHfDvLFqZ4B9-42" style="edgeStyle=orthogonalEdgeStyle;rounded=0;orthogonalLoop=1;jettySize=auto;html=1;entryX=0.5;entryY=0;entryDx=0;entryDy=0;" parent="1" source="4FaKaW2nBHfDvLFqZ4B9-43" target="4FaKaW2nBHfDvLFqZ4B9-44" edge="1">
          <mxGeometry relative="1" as="geometry" />
        </mxCell>
        <mxCell id="4FaKaW2nBHfDvLFqZ4B9-43" value="نتیجه" style="rhombus;whiteSpace=wrap;html=1;fillColor=#dae8fc;strokeColor=#6c8ebf;" parent="1" vertex="1">
          <mxGeometry x="115.5" y="873" width="169" height="80" as="geometry" />
        </mxCell>
        <mxCell id="4FaKaW2nBHfDvLFqZ4B9-44" value="تکمیل احراز هویت" style="rounded=1;whiteSpace=wrap;html=1;fillColor=#fff2cc;strokeColor=#d6b656;" parent="1" vertex="1">
          <mxGeometry x="140.25" y="996" width="120" height="60" as="geometry" />
        </mxCell>
        <mxCell id="gQGEIpNuVRfoO_O47XsO-2" value="&lt;font style=&quot;font-size: 30px;&quot; color=&quot;#ff2e9d&quot; face=&quot;Tahoma&quot;&gt;احراز هویت&lt;/font&gt;" style="text;html=1;align=center;verticalAlign=middle;resizable=0;points=[];autosize=1;strokeColor=none;fillColor=none;" vertex="1" parent="1">
          <mxGeometry x="105" y="40" width="155" height="48" as="geometry" />
        </mxCell>
      </root>
    </mxGraphModel>
  </diagram>
  <diagram id="v59sDsgjJgZPGbm1hc7H" name="مشاهده بیماران‌ومشاهده گزارشات">
    <mxGraphModel dx="924" dy="855" grid="0" gridSize="10" guides="1" tooltips="1" connect="1" arrows="1" fold="1" page="1" pageScale="1" pageWidth="850" pageHeight="1100" math="0" shadow="1">
      <root>
        <mxCell id="0" />
        <mxCell id="1" parent="0" />
        <mxCell id="41zMJpP6EPs4QqZYBTX4-1" style="edgeStyle=orthogonalEdgeStyle;rounded=0;orthogonalLoop=1;jettySize=auto;html=1;entryX=0.5;entryY=0;entryDx=0;entryDy=0;" parent="1" target="41zMJpP6EPs4QqZYBTX4-4" edge="1">
          <mxGeometry relative="1" as="geometry">
            <mxPoint x="423.1199999999999" y="167" as="sourcePoint" />
          </mxGeometry>
        </mxCell>
        <mxCell id="41zMJpP6EPs4QqZYBTX4-2" value="" style="ellipse;html=1;shape=startState;fillColor=#000000;strokeColor=#ff0000;" parent="1" vertex="1">
          <mxGeometry x="408.12" y="18" width="30" height="30" as="geometry" />
        </mxCell>
        <mxCell id="41zMJpP6EPs4QqZYBTX4-3" style="edgeStyle=orthogonalEdgeStyle;rounded=0;orthogonalLoop=1;jettySize=auto;html=1;entryX=0.5;entryY=0;entryDx=0;entryDy=0;" parent="1" source="41zMJpP6EPs4QqZYBTX4-4" target="41zMJpP6EPs4QqZYBTX4-6" edge="1">
          <mxGeometry relative="1" as="geometry" />
        </mxCell>
        <mxCell id="41zMJpP6EPs4QqZYBTX4-4" value="انتخاب گزینه بیماران" style="rounded=1;whiteSpace=wrap;html=1;fillColor=#fff2cc;strokeColor=#d6b656;" parent="1" vertex="1">
          <mxGeometry x="363.12" y="221" width="120" height="60" as="geometry" />
        </mxCell>
        <mxCell id="41zMJpP6EPs4QqZYBTX4-5" style="edgeStyle=orthogonalEdgeStyle;rounded=0;orthogonalLoop=1;jettySize=auto;html=1;entryX=0.5;entryY=0;entryDx=0;entryDy=0;" parent="1" source="41zMJpP6EPs4QqZYBTX4-6" target="41zMJpP6EPs4QqZYBTX4-8" edge="1">
          <mxGeometry relative="1" as="geometry" />
        </mxCell>
        <mxCell id="41zMJpP6EPs4QqZYBTX4-6" value="مشاهده بیمارانی که تابحال توسط او ویزیت شده‌اند" style="rounded=1;whiteSpace=wrap;html=1;fillColor=#fff2cc;strokeColor=#d6b656;" parent="1" vertex="1">
          <mxGeometry x="363.12" y="335" width="120" height="60" as="geometry" />
        </mxCell>
        <mxCell id="41zMJpP6EPs4QqZYBTX4-7" style="edgeStyle=orthogonalEdgeStyle;rounded=0;orthogonalLoop=1;jettySize=auto;html=1;entryX=0.5;entryY=0;entryDx=0;entryDy=0;" parent="1" source="41zMJpP6EPs4QqZYBTX4-8" target="41zMJpP6EPs4QqZYBTX4-10" edge="1">
          <mxGeometry relative="1" as="geometry" />
        </mxCell>
        <mxCell id="41zMJpP6EPs4QqZYBTX4-8" value="انتخاب بیمار" style="rounded=1;whiteSpace=wrap;html=1;fillColor=#fff2cc;strokeColor=#d6b656;" parent="1" vertex="1">
          <mxGeometry x="363.12" y="449" width="120" height="60" as="geometry" />
        </mxCell>
        <mxCell id="41zMJpP6EPs4QqZYBTX4-9" style="edgeStyle=orthogonalEdgeStyle;rounded=0;orthogonalLoop=1;jettySize=auto;html=1;entryX=0.5;entryY=0;entryDx=0;entryDy=0;" parent="1" source="41zMJpP6EPs4QqZYBTX4-10" target="41zMJpP6EPs4QqZYBTX4-12" edge="1">
          <mxGeometry relative="1" as="geometry" />
        </mxCell>
        <mxCell id="41zMJpP6EPs4QqZYBTX4-10" value="مشاهده لیست‌ نوبت‌ها&amp;nbsp;" style="rounded=1;whiteSpace=wrap;html=1;fillColor=#fff2cc;strokeColor=#d6b656;" parent="1" vertex="1">
          <mxGeometry x="363.12" y="563" width="120" height="60" as="geometry" />
        </mxCell>
        <mxCell id="41zMJpP6EPs4QqZYBTX4-12" value="مشاهده نسخه و اطلاعات بیمار از جمله گزارشات بهیار" style="rounded=1;whiteSpace=wrap;html=1;fillColor=#fff2cc;strokeColor=#d6b656;" parent="1" vertex="1">
          <mxGeometry x="363.12" y="677" width="120" height="60" as="geometry" />
        </mxCell>
        <mxCell id="SEmBY2ckCsACXLVz9-JT-1" value="&lt;font style=&quot;font-size: 41px;&quot; face=&quot;Tahoma&quot; color=&quot;#ff2e9d&quot;&gt;پنل پزشک&lt;/font&gt;&lt;font style=&quot;font-size: 41px;&quot; face=&quot;_kxpbe5iIvoVPWevJDPW&quot;&gt;&lt;br&gt;&lt;/font&gt;" style="text;html=1;align=center;verticalAlign=middle;resizable=0;points=[];autosize=1;strokeColor=none;fillColor=none;" parent="1" vertex="1">
          <mxGeometry x="632" y="24" width="160" height="61" as="geometry" />
        </mxCell>
        <mxCell id="59o-PFM6k28kOsdaJSfM-1" value="" style="edgeStyle=orthogonalEdgeStyle;rounded=0;orthogonalLoop=1;jettySize=auto;html=1;" parent="1" edge="1">
          <mxGeometry relative="1" as="geometry">
            <mxPoint x="422.84000000000003" y="47" as="sourcePoint" />
            <mxPoint x="422.84000000000003" y="101" as="targetPoint" />
          </mxGeometry>
        </mxCell>
        <mxCell id="59o-PFM6k28kOsdaJSfM-2" value="ورود به پنل پزشک" style="rounded=1;whiteSpace=wrap;html=1;fillColor=#fff2cc;strokeColor=#d6b656;" parent="1" vertex="1">
          <mxGeometry x="363.12" y="101" width="120" height="60" as="geometry" />
        </mxCell>
        <mxCell id="9LqQQmWfcYAMibfEocjn-1" value="&lt;font style=&quot;font-size: 22px;&quot; color=&quot;#ff2e9d&quot; face=&quot;Tahoma&quot;&gt;مشاهده بیماران‌ومشاهده گزارشات&lt;/font&gt;" style="text;html=1;align=center;verticalAlign=middle;resizable=0;points=[];autosize=1;strokeColor=none;fillColor=none;" vertex="1" parent="1">
          <mxGeometry x="21" y="35" width="338" height="38" as="geometry" />
        </mxCell>
      </root>
    </mxGraphModel>
  </diagram>
  <diagram id="-ymNmGknY1GtbZw8oHHY" name="ویزیت بیمار">
    <mxGraphModel dx="1434" dy="820" grid="0" gridSize="10" guides="1" tooltips="1" connect="1" arrows="1" fold="1" page="1" pageScale="1" pageWidth="850" pageHeight="1100" math="0" shadow="0">
      <root>
        <mxCell id="0" />
        <mxCell id="1" parent="0" />
        <mxCell id="iKYJ4wEbvvt_CDGnGMS3-1" style="edgeStyle=orthogonalEdgeStyle;rounded=0;orthogonalLoop=1;jettySize=auto;html=1;entryX=0.5;entryY=0;entryDx=0;entryDy=0;" parent="1" target="iKYJ4wEbvvt_CDGnGMS3-3" edge="1">
          <mxGeometry relative="1" as="geometry">
            <mxPoint x="423.9999999999999" y="164" as="sourcePoint" />
          </mxGeometry>
        </mxCell>
        <mxCell id="iKYJ4wEbvvt_CDGnGMS3-2" value="" style="ellipse;html=1;shape=startState;fillColor=#000000;strokeColor=#ff0000;" parent="1" vertex="1">
          <mxGeometry x="408.12" y="18" width="30" height="30" as="geometry" />
        </mxCell>
        <mxCell id="jpBTavrYxMbSmwcCL-Kd-2" style="edgeStyle=orthogonalEdgeStyle;rounded=0;orthogonalLoop=1;jettySize=auto;html=1;" parent="1" source="iKYJ4wEbvvt_CDGnGMS3-3" target="jpBTavrYxMbSmwcCL-Kd-1" edge="1">
          <mxGeometry relative="1" as="geometry" />
        </mxCell>
        <mxCell id="iKYJ4wEbvvt_CDGnGMS3-3" value="انتخاب گزینه معالجه&amp;nbsp;" style="rounded=1;whiteSpace=wrap;html=1;fillColor=#fff2cc;strokeColor=#d6b656;" parent="1" vertex="1">
          <mxGeometry x="364" y="218" width="120" height="60" as="geometry" />
        </mxCell>
        <mxCell id="jpBTavrYxMbSmwcCL-Kd-1" value="ورود به اتاق مجازی ویزیت" style="rounded=1;whiteSpace=wrap;html=1;fillColor=#fff2cc;strokeColor=#d6b656;" parent="1" vertex="1">
          <mxGeometry x="364" y="332" width="120" height="60" as="geometry" />
        </mxCell>
        <mxCell id="xiHdcCSP6FbuAoLd8yhL-1" value="&lt;font style=&quot;font-size: 41px;&quot; face=&quot;Tahoma&quot; color=&quot;#ff2e9d&quot;&gt;پنل پزشک&lt;/font&gt;&lt;font style=&quot;font-size: 41px;&quot; face=&quot;_kxpbe5iIvoVPWevJDPW&quot;&gt;&lt;br&gt;&lt;/font&gt;" style="text;html=1;align=center;verticalAlign=middle;resizable=0;points=[];autosize=1;strokeColor=none;fillColor=none;" parent="1" vertex="1">
          <mxGeometry x="632" y="24" width="160" height="61" as="geometry" />
        </mxCell>
        <mxCell id="bzj4PeYoGOob8Lpwaom5-1" value="" style="edgeStyle=orthogonalEdgeStyle;rounded=0;orthogonalLoop=1;jettySize=auto;html=1;" parent="1" edge="1">
          <mxGeometry relative="1" as="geometry">
            <mxPoint x="422.84000000000003" y="50" as="sourcePoint" />
            <mxPoint x="422.84000000000003" y="104" as="targetPoint" />
          </mxGeometry>
        </mxCell>
        <mxCell id="bzj4PeYoGOob8Lpwaom5-2" value="ورود به پنل پزشک" style="rounded=1;whiteSpace=wrap;html=1;fillColor=#fff2cc;strokeColor=#d6b656;" parent="1" vertex="1">
          <mxGeometry x="363.12" y="104" width="120" height="60" as="geometry" />
        </mxCell>
        <mxCell id="V2_683YFuZqBeFIXHNoY-1" value="&lt;font style=&quot;font-size: 30px;&quot; color=&quot;#ff2e9d&quot; face=&quot;Tahoma&quot;&gt;ویزیت بیمار&lt;/font&gt;" style="text;html=1;align=center;verticalAlign=middle;resizable=0;points=[];autosize=1;strokeColor=none;fillColor=none;" vertex="1" parent="1">
          <mxGeometry x="95" y="30" width="154" height="48" as="geometry" />
        </mxCell>
      </root>
    </mxGraphModel>
  </diagram>
  <diagram id="3KQFDjnTUseXHIDgtZ4h" name="ثبت درخواست بهیار">
    <mxGraphModel dx="924" dy="855" grid="0" gridSize="10" guides="1" tooltips="1" connect="1" arrows="1" fold="1" page="1" pageScale="1" pageWidth="850" pageHeight="1100" math="0" shadow="0">
      <root>
        <mxCell id="0" />
        <mxCell id="1" parent="0" />
        <mxCell id="58nMoKgWmDX21kcRhxYN-1" style="edgeStyle=orthogonalEdgeStyle;rounded=0;orthogonalLoop=1;jettySize=auto;html=1;entryX=0.5;entryY=0;entryDx=0;entryDy=0;" parent="1" target="58nMoKgWmDX21kcRhxYN-3" edge="1">
          <mxGeometry relative="1" as="geometry">
            <mxPoint x="423.1199999999999" y="164" as="sourcePoint" />
          </mxGeometry>
        </mxCell>
        <mxCell id="58nMoKgWmDX21kcRhxYN-2" value="" style="ellipse;html=1;shape=startState;fillColor=#000000;strokeColor=#ff0000;" parent="1" vertex="1">
          <mxGeometry x="408.12" y="18" width="30" height="30" as="geometry" />
        </mxCell>
        <mxCell id="WzfmMW1xO7xWY0SpS_B6-4" style="edgeStyle=orthogonalEdgeStyle;rounded=0;orthogonalLoop=1;jettySize=auto;html=1;entryX=0.5;entryY=0;entryDx=0;entryDy=0;" parent="1" source="58nMoKgWmDX21kcRhxYN-3" target="t8S_f1dNRp9nqtWYYT-q-1" edge="1">
          <mxGeometry relative="1" as="geometry" />
        </mxCell>
        <mxCell id="58nMoKgWmDX21kcRhxYN-3" value="انتخاب گزینه بهیاران" style="rounded=1;whiteSpace=wrap;html=1;fillColor=#fff2cc;strokeColor=#d6b656;" parent="1" vertex="1">
          <mxGeometry x="363.12" y="218" width="120" height="60" as="geometry" />
        </mxCell>
        <mxCell id="WzfmMW1xO7xWY0SpS_B6-5" style="edgeStyle=orthogonalEdgeStyle;rounded=0;orthogonalLoop=1;jettySize=auto;html=1;entryX=0.5;entryY=0;entryDx=0;entryDy=0;" parent="1" source="t8S_f1dNRp9nqtWYYT-q-1" target="t8S_f1dNRp9nqtWYYT-q-2" edge="1">
          <mxGeometry relative="1" as="geometry" />
        </mxCell>
        <mxCell id="t8S_f1dNRp9nqtWYYT-q-1" value="انتخاب بهیار" style="rounded=1;whiteSpace=wrap;html=1;fillColor=#fff2cc;strokeColor=#d6b656;" parent="1" vertex="1">
          <mxGeometry x="363.12" y="332" width="120" height="60" as="geometry" />
        </mxCell>
        <mxCell id="WzfmMW1xO7xWY0SpS_B6-6" style="edgeStyle=orthogonalEdgeStyle;rounded=0;orthogonalLoop=1;jettySize=auto;html=1;entryX=0.5;entryY=0;entryDx=0;entryDy=0;" parent="1" source="t8S_f1dNRp9nqtWYYT-q-2" target="WzfmMW1xO7xWY0SpS_B6-1" edge="1">
          <mxGeometry relative="1" as="geometry" />
        </mxCell>
        <mxCell id="t8S_f1dNRp9nqtWYYT-q-2" value="مشاهده رزومه بهیار" style="rounded=1;whiteSpace=wrap;html=1;fillColor=#fff2cc;strokeColor=#d6b656;" parent="1" vertex="1">
          <mxGeometry x="363.12" y="446" width="120" height="60" as="geometry" />
        </mxCell>
        <mxCell id="WzfmMW1xO7xWY0SpS_B6-7" style="edgeStyle=orthogonalEdgeStyle;rounded=0;orthogonalLoop=1;jettySize=auto;html=1;entryX=0.5;entryY=0;entryDx=0;entryDy=0;" parent="1" source="WzfmMW1xO7xWY0SpS_B6-1" target="WzfmMW1xO7xWY0SpS_B6-2" edge="1">
          <mxGeometry relative="1" as="geometry" />
        </mxCell>
        <mxCell id="WzfmMW1xO7xWY0SpS_B6-9" value="قبول" style="edgeLabel;html=1;align=center;verticalAlign=middle;resizable=0;points=[];" parent="WzfmMW1xO7xWY0SpS_B6-7" vertex="1" connectable="0">
          <mxGeometry x="0.2593" y="3" relative="1" as="geometry">
            <mxPoint as="offset" />
          </mxGeometry>
        </mxCell>
        <mxCell id="WzfmMW1xO7xWY0SpS_B6-1" value="بررسی بهیار" style="rhombus;whiteSpace=wrap;html=1;fillColor=#dae8fc;strokeColor=#6c8ebf;" parent="1" vertex="1">
          <mxGeometry x="338.62" y="560" width="169" height="80" as="geometry" />
        </mxCell>
        <mxCell id="WzfmMW1xO7xWY0SpS_B6-2" value="ثبت درخواست" style="rounded=1;whiteSpace=wrap;html=1;fillColor=#fff2cc;strokeColor=#d6b656;" parent="1" vertex="1">
          <mxGeometry x="363.12" y="694" width="120" height="60" as="geometry" />
        </mxCell>
        <mxCell id="WzfmMW1xO7xWY0SpS_B6-3" style="edgeStyle=orthogonalEdgeStyle;rounded=0;orthogonalLoop=1;jettySize=auto;html=1;entryX=0.999;entryY=0.383;entryDx=0;entryDy=0;entryPerimeter=0;" parent="1" source="WzfmMW1xO7xWY0SpS_B6-1" target="t8S_f1dNRp9nqtWYYT-q-1" edge="1">
          <mxGeometry relative="1" as="geometry">
            <Array as="points">
              <mxPoint x="535" y="600" />
              <mxPoint x="535" y="355" />
            </Array>
          </mxGeometry>
        </mxCell>
        <mxCell id="WzfmMW1xO7xWY0SpS_B6-8" value="رد" style="edgeLabel;html=1;align=center;verticalAlign=middle;resizable=0;points=[];" parent="WzfmMW1xO7xWY0SpS_B6-3" vertex="1" connectable="0">
          <mxGeometry x="-0.079" y="-3" relative="1" as="geometry">
            <mxPoint as="offset" />
          </mxGeometry>
        </mxCell>
        <mxCell id="-599gnvnlt-AFmnZsvA_-1" value="&lt;font style=&quot;font-size: 41px;&quot; face=&quot;Tahoma&quot; color=&quot;#ff2e9d&quot;&gt;پنل پزشک&lt;/font&gt;&lt;font style=&quot;font-size: 41px;&quot; face=&quot;_kxpbe5iIvoVPWevJDPW&quot;&gt;&lt;br&gt;&lt;/font&gt;" style="text;html=1;align=center;verticalAlign=middle;resizable=0;points=[];autosize=1;strokeColor=none;fillColor=none;" parent="1" vertex="1">
          <mxGeometry x="632" y="24" width="160" height="61" as="geometry" />
        </mxCell>
        <mxCell id="f_eNI21sOjiqBpWa18Fe-1" value="" style="edgeStyle=orthogonalEdgeStyle;rounded=0;orthogonalLoop=1;jettySize=auto;html=1;" parent="1" edge="1">
          <mxGeometry relative="1" as="geometry">
            <mxPoint x="423.72" y="48" as="sourcePoint" />
            <mxPoint x="423.72" y="102" as="targetPoint" />
          </mxGeometry>
        </mxCell>
        <mxCell id="f_eNI21sOjiqBpWa18Fe-2" value="ورود به پنل پزشک" style="rounded=1;whiteSpace=wrap;html=1;fillColor=#fff2cc;strokeColor=#d6b656;" parent="1" vertex="1">
          <mxGeometry x="364" y="102" width="120" height="60" as="geometry" />
        </mxCell>
        <mxCell id="m8xTV4bkZpTkZx8ZjAqj-1" value="&lt;font style=&quot;font-size: 30px;&quot; color=&quot;#ff2e9d&quot; face=&quot;Tahoma&quot;&gt;ثبت درخواست بهیار&lt;/font&gt;" style="text;html=1;align=center;verticalAlign=middle;resizable=0;points=[];autosize=1;strokeColor=none;fillColor=none;" vertex="1" parent="1">
          <mxGeometry x="41" y="30" width="262" height="48" as="geometry" />
        </mxCell>
      </root>
    </mxGraphModel>
  </diagram>
  <diagram id="Rc_PUp-oyMHTpb4cvOzX" name="نوشتن نسخه">
    <mxGraphModel dx="924" dy="855" grid="0" gridSize="10" guides="1" tooltips="1" connect="1" arrows="1" fold="1" page="1" pageScale="1" pageWidth="850" pageHeight="1100" math="0" shadow="0">
      <root>
        <mxCell id="0" />
        <mxCell id="1" parent="0" />
        <mxCell id="y9xHX_pDdLY75_kmCvpo-1" style="edgeStyle=orthogonalEdgeStyle;rounded=0;orthogonalLoop=1;jettySize=auto;html=1;entryX=0.5;entryY=0;entryDx=0;entryDy=0;" parent="1" target="y9xHX_pDdLY75_kmCvpo-4" edge="1">
          <mxGeometry relative="1" as="geometry">
            <mxPoint x="423.1199999999999" y="161" as="sourcePoint" />
          </mxGeometry>
        </mxCell>
        <mxCell id="y9xHX_pDdLY75_kmCvpo-2" value="" style="ellipse;html=1;shape=startState;fillColor=#000000;strokeColor=#ff0000;" parent="1" vertex="1">
          <mxGeometry x="408.12" y="18" width="30" height="30" as="geometry" />
        </mxCell>
        <mxCell id="y9xHX_pDdLY75_kmCvpo-3" style="edgeStyle=orthogonalEdgeStyle;rounded=0;orthogonalLoop=1;jettySize=auto;html=1;entryX=0.5;entryY=0;entryDx=0;entryDy=0;" parent="1" source="y9xHX_pDdLY75_kmCvpo-4" target="y9xHX_pDdLY75_kmCvpo-6" edge="1">
          <mxGeometry relative="1" as="geometry" />
        </mxCell>
        <mxCell id="y9xHX_pDdLY75_kmCvpo-4" value="انتخاب گزینه بیماران" style="rounded=1;whiteSpace=wrap;html=1;fillColor=#fff2cc;strokeColor=#d6b656;" parent="1" vertex="1">
          <mxGeometry x="363.12" y="215" width="120" height="60" as="geometry" />
        </mxCell>
        <mxCell id="y9xHX_pDdLY75_kmCvpo-5" style="edgeStyle=orthogonalEdgeStyle;rounded=0;orthogonalLoop=1;jettySize=auto;html=1;entryX=0.5;entryY=0;entryDx=0;entryDy=0;" parent="1" source="y9xHX_pDdLY75_kmCvpo-6" target="y9xHX_pDdLY75_kmCvpo-8" edge="1">
          <mxGeometry relative="1" as="geometry" />
        </mxCell>
        <mxCell id="y9xHX_pDdLY75_kmCvpo-6" value="مشاهده بیمارانی که تابحال توسط او ویزیت شده‌اند" style="rounded=1;whiteSpace=wrap;html=1;fillColor=#fff2cc;strokeColor=#d6b656;" parent="1" vertex="1">
          <mxGeometry x="363.12" y="329" width="120" height="60" as="geometry" />
        </mxCell>
        <mxCell id="iPYfl4DVJC20aiQWn8jJ-6" style="edgeStyle=orthogonalEdgeStyle;rounded=0;orthogonalLoop=1;jettySize=auto;html=1;entryX=0.5;entryY=0;entryDx=0;entryDy=0;" parent="1" source="y9xHX_pDdLY75_kmCvpo-8" target="iPYfl4DVJC20aiQWn8jJ-1" edge="1">
          <mxGeometry relative="1" as="geometry" />
        </mxCell>
        <mxCell id="y9xHX_pDdLY75_kmCvpo-8" value="انتخاب بیمار" style="rounded=1;whiteSpace=wrap;html=1;fillColor=#fff2cc;strokeColor=#d6b656;" parent="1" vertex="1">
          <mxGeometry x="363.12" y="443" width="120" height="60" as="geometry" />
        </mxCell>
        <mxCell id="iPYfl4DVJC20aiQWn8jJ-7" style="edgeStyle=orthogonalEdgeStyle;rounded=0;orthogonalLoop=1;jettySize=auto;html=1;entryX=0.5;entryY=0;entryDx=0;entryDy=0;" parent="1" source="iPYfl4DVJC20aiQWn8jJ-1" target="iPYfl4DVJC20aiQWn8jJ-4" edge="1">
          <mxGeometry relative="1" as="geometry" />
        </mxCell>
        <mxCell id="iPYfl4DVJC20aiQWn8jJ-1" value="مشاهده لیست‌ نوبت‌ها" style="rounded=1;whiteSpace=wrap;html=1;fillColor=#fff2cc;strokeColor=#d6b656;" parent="1" vertex="1">
          <mxGeometry x="363.12" y="557" width="120" height="60" as="geometry" />
        </mxCell>
        <mxCell id="iPYfl4DVJC20aiQWn8jJ-3" style="edgeStyle=orthogonalEdgeStyle;rounded=0;orthogonalLoop=1;jettySize=auto;html=1;entryX=0.5;entryY=0;entryDx=0;entryDy=0;" parent="1" source="iPYfl4DVJC20aiQWn8jJ-4" target="iPYfl4DVJC20aiQWn8jJ-5" edge="1">
          <mxGeometry relative="1" as="geometry" />
        </mxCell>
        <mxCell id="iPYfl4DVJC20aiQWn8jJ-4" value="انتخاب نوبت مورد نظر" style="rounded=1;whiteSpace=wrap;html=1;fillColor=#fff2cc;strokeColor=#d6b656;" parent="1" vertex="1">
          <mxGeometry x="363.12" y="671" width="120" height="60" as="geometry" />
        </mxCell>
        <mxCell id="5tU7qJ3Dh64uan8ClLYf-2" style="edgeStyle=orthogonalEdgeStyle;rounded=0;orthogonalLoop=1;jettySize=auto;html=1;" parent="1" source="iPYfl4DVJC20aiQWn8jJ-5" target="5tU7qJ3Dh64uan8ClLYf-1" edge="1">
          <mxGeometry relative="1" as="geometry" />
        </mxCell>
        <mxCell id="iPYfl4DVJC20aiQWn8jJ-5" value="مشاهده نسخه و اطلاعات بیمار از جمله گزارشات بهیار" style="rounded=1;whiteSpace=wrap;html=1;fillColor=#fff2cc;strokeColor=#d6b656;" parent="1" vertex="1">
          <mxGeometry x="363.12" y="774" width="120" height="60" as="geometry" />
        </mxCell>
        <mxCell id="5tU7qJ3Dh64uan8ClLYf-1" value="نوشتن نسخه" style="rounded=1;whiteSpace=wrap;html=1;fillColor=#fff2cc;strokeColor=#d6b656;" parent="1" vertex="1">
          <mxGeometry x="363.12" y="877" width="120" height="60" as="geometry" />
        </mxCell>
        <mxCell id="8meJB_8EhE-Mi3121kdR-1" value="&lt;font style=&quot;font-size: 41px;&quot; face=&quot;Tahoma&quot; color=&quot;#ff2e9d&quot;&gt;پنل پزشک&lt;/font&gt;&lt;font style=&quot;font-size: 41px;&quot; face=&quot;_kxpbe5iIvoVPWevJDPW&quot;&gt;&lt;br&gt;&lt;/font&gt;" style="text;html=1;align=center;verticalAlign=middle;resizable=0;points=[];autosize=1;strokeColor=none;fillColor=none;" parent="1" vertex="1">
          <mxGeometry x="632" y="24" width="160" height="61" as="geometry" />
        </mxCell>
        <mxCell id="gDngDdzWEq0yVxDAw2Dt-1" value="" style="edgeStyle=orthogonalEdgeStyle;rounded=0;orthogonalLoop=1;jettySize=auto;html=1;" parent="1" edge="1">
          <mxGeometry relative="1" as="geometry">
            <mxPoint x="422.84000000000003" y="47" as="sourcePoint" />
            <mxPoint x="422.84000000000003" y="101" as="targetPoint" />
          </mxGeometry>
        </mxCell>
        <mxCell id="gDngDdzWEq0yVxDAw2Dt-2" value="ورود به پنل پزشک" style="rounded=1;whiteSpace=wrap;html=1;fillColor=#fff2cc;strokeColor=#d6b656;" parent="1" vertex="1">
          <mxGeometry x="363.12" y="101" width="120" height="60" as="geometry" />
        </mxCell>
        <mxCell id="e39mquQissmWG6zyUclT-1" value="&lt;font style=&quot;font-size: 30px;&quot; color=&quot;#ff2e9d&quot; face=&quot;Tahoma&quot;&gt;نوشتن نسخه&lt;/font&gt;" style="text;html=1;align=center;verticalAlign=middle;resizable=0;points=[];autosize=1;strokeColor=none;fillColor=none;" vertex="1" parent="1">
          <mxGeometry x="78" y="30" width="189" height="48" as="geometry" />
        </mxCell>
      </root>
    </mxGraphModel>
  </diagram>
  <diagram id="P7kBUxeHfjEHdrvsK1jq" name="چک‌کردن بیمار">
    <mxGraphModel dx="1886" dy="854" grid="0" gridSize="10" guides="1" tooltips="1" connect="1" arrows="1" fold="1" page="1" pageScale="1" pageWidth="850" pageHeight="1100" math="0" shadow="0">
      <root>
        <mxCell id="0" />
        <mxCell id="1" parent="0" />
        <mxCell id="NIz1mHVnNi8Wx4ghglP7-1" style="edgeStyle=orthogonalEdgeStyle;rounded=0;orthogonalLoop=1;jettySize=auto;html=1;entryX=0.5;entryY=0;entryDx=0;entryDy=0;" parent="1" target="NIz1mHVnNi8Wx4ghglP7-3" edge="1">
          <mxGeometry relative="1" as="geometry">
            <mxPoint x="413.1199999999999" y="134" as="sourcePoint" />
          </mxGeometry>
        </mxCell>
        <mxCell id="NIz1mHVnNi8Wx4ghglP7-2" value="" style="ellipse;html=1;shape=startState;fillColor=#000000;strokeColor=#ff0000;" parent="1" vertex="1">
          <mxGeometry x="398.12" y="20" width="30" height="30" as="geometry" />
        </mxCell>
        <mxCell id="GOkNlYeoqOg5Ytxv0sTQ-5" style="edgeStyle=orthogonalEdgeStyle;rounded=0;orthogonalLoop=1;jettySize=auto;html=1;entryX=0.5;entryY=0;entryDx=0;entryDy=0;" parent="1" source="NIz1mHVnNi8Wx4ghglP7-3" target="GOkNlYeoqOg5Ytxv0sTQ-1" edge="1">
          <mxGeometry relative="1" as="geometry" />
        </mxCell>
        <mxCell id="NIz1mHVnNi8Wx4ghglP7-3" value="انتخاب گزینه بیماران" style="rounded=1;whiteSpace=wrap;html=1;fillColor=#fff2cc;strokeColor=#d6b656;" parent="1" vertex="1">
          <mxGeometry x="353.12" y="214" width="120" height="60" as="geometry" />
        </mxCell>
        <mxCell id="GOkNlYeoqOg5Ytxv0sTQ-6" style="edgeStyle=orthogonalEdgeStyle;rounded=0;orthogonalLoop=1;jettySize=auto;html=1;entryX=0.5;entryY=0;entryDx=0;entryDy=0;" parent="1" source="GOkNlYeoqOg5Ytxv0sTQ-1" target="GOkNlYeoqOg5Ytxv0sTQ-2" edge="1">
          <mxGeometry relative="1" as="geometry" />
        </mxCell>
        <mxCell id="GOkNlYeoqOg5Ytxv0sTQ-1" value="انتخاب بیمار مورد نظر" style="rounded=1;whiteSpace=wrap;html=1;fillColor=#fff2cc;strokeColor=#d6b656;" parent="1" vertex="1">
          <mxGeometry x="353.12" y="321" width="120" height="60" as="geometry" />
        </mxCell>
        <mxCell id="GOkNlYeoqOg5Ytxv0sTQ-7" style="edgeStyle=orthogonalEdgeStyle;rounded=0;orthogonalLoop=1;jettySize=auto;html=1;entryX=0.5;entryY=0;entryDx=0;entryDy=0;" parent="1" source="GOkNlYeoqOg5Ytxv0sTQ-2" target="GOkNlYeoqOg5Ytxv0sTQ-3" edge="1">
          <mxGeometry relative="1" as="geometry" />
        </mxCell>
        <mxCell id="GOkNlYeoqOg5Ytxv0sTQ-2" value="انتخاب نوبت مورد نظر" style="rounded=1;whiteSpace=wrap;html=1;fillColor=#fff2cc;strokeColor=#d6b656;" parent="1" vertex="1">
          <mxGeometry x="353.12" y="428" width="120" height="60" as="geometry" />
        </mxCell>
        <mxCell id="GOkNlYeoqOg5Ytxv0sTQ-8" style="edgeStyle=orthogonalEdgeStyle;rounded=0;orthogonalLoop=1;jettySize=auto;html=1;entryX=0.5;entryY=0;entryDx=0;entryDy=0;" parent="1" source="GOkNlYeoqOg5Ytxv0sTQ-3" target="GOkNlYeoqOg5Ytxv0sTQ-4" edge="1">
          <mxGeometry relative="1" as="geometry" />
        </mxCell>
        <mxCell id="GOkNlYeoqOg5Ytxv0sTQ-3" value="تماس با توجه به اطلاعات ثبت شده" style="rounded=1;whiteSpace=wrap;html=1;fillColor=#fff2cc;strokeColor=#d6b656;" parent="1" vertex="1">
          <mxGeometry x="353.12" y="535" width="120" height="60" as="geometry" />
        </mxCell>
        <mxCell id="EfdUAUnSZdAMddTPoPE0-2" value="" style="edgeStyle=orthogonalEdgeStyle;rounded=0;orthogonalLoop=1;jettySize=auto;html=1;" parent="1" source="GOkNlYeoqOg5Ytxv0sTQ-4" target="EfdUAUnSZdAMddTPoPE0-1" edge="1">
          <mxGeometry relative="1" as="geometry" />
        </mxCell>
        <mxCell id="GOkNlYeoqOg5Ytxv0sTQ-4" value="نوشتن گزارش نوبت انتخاب شده" style="rounded=1;whiteSpace=wrap;html=1;fillColor=#fff2cc;strokeColor=#d6b656;" parent="1" vertex="1">
          <mxGeometry x="353.12" y="642" width="120" height="60" as="geometry" />
        </mxCell>
        <mxCell id="EfdUAUnSZdAMddTPoPE0-1" value="ثبت اطلاعات" style="rounded=1;whiteSpace=wrap;html=1;fillColor=#fff2cc;strokeColor=#d6b656;" parent="1" vertex="1">
          <mxGeometry x="353.12" y="782" width="120" height="60" as="geometry" />
        </mxCell>
        <mxCell id="SzVyHWXBArorraRFvjbO-1" value="&lt;font style=&quot;font-size: 41px;&quot; face=&quot;Tahoma&quot; color=&quot;#ff2e9d&quot;&gt;پنل بهیار&lt;/font&gt;&lt;font style=&quot;font-size: 41px;&quot; face=&quot;_kxpbe5iIvoVPWevJDPW&quot;&gt;&lt;br&gt;&lt;/font&gt;" style="text;html=1;align=center;verticalAlign=middle;resizable=0;points=[];autosize=1;strokeColor=none;fillColor=none;" parent="1" vertex="1">
          <mxGeometry x="645" y="24" width="135" height="61" as="geometry" />
        </mxCell>
        <mxCell id="qjOqKd82EanqijzJmKcO-1" value="" style="edgeStyle=orthogonalEdgeStyle;rounded=0;orthogonalLoop=1;jettySize=auto;html=1;" parent="1" edge="1">
          <mxGeometry relative="1" as="geometry">
            <mxPoint x="413.84000000000003" y="49" as="sourcePoint" />
            <mxPoint x="413.84000000000003" y="103" as="targetPoint" />
          </mxGeometry>
        </mxCell>
        <mxCell id="qjOqKd82EanqijzJmKcO-2" value="ورود به پنل بهیار" style="rounded=1;whiteSpace=wrap;html=1;fillColor=#fff2cc;strokeColor=#d6b656;" parent="1" vertex="1">
          <mxGeometry x="354.12" y="103" width="120" height="60" as="geometry" />
        </mxCell>
        <mxCell id="uR6jNAGutqcw-qFpLZcM-1" value="&lt;div&gt;&lt;font style=&quot;font-size: 30px;&quot; color=&quot;#ff2e9d&quot; face=&quot;Tahoma&quot;&gt;چک‌کردن بیمار&lt;/font&gt;&lt;/div&gt;" style="text;html=1;align=center;verticalAlign=middle;resizable=0;points=[];autosize=1;strokeColor=none;fillColor=none;" vertex="1" parent="1">
          <mxGeometry x="75" y="30" width="194" height="48" as="geometry" />
        </mxCell>
      </root>
    </mxGraphModel>
  </diagram>
  <diagram id="F4X_OHY7VhIX1MNC7NkL" name="چک کردن درخواست‌ها">
    <mxGraphModel dx="1434" dy="820" grid="0" gridSize="10" guides="1" tooltips="1" connect="1" arrows="1" fold="1" page="1" pageScale="1" pageWidth="850" pageHeight="1100" math="0" shadow="0">
      <root>
        <mxCell id="0" />
        <mxCell id="1" parent="0" />
        <mxCell id="0GrLM-0Wt3R-fld8987S-1" style="edgeStyle=orthogonalEdgeStyle;rounded=0;orthogonalLoop=1;jettySize=auto;html=1;entryX=0.5;entryY=0;entryDx=0;entryDy=0;" parent="1" target="0GrLM-0Wt3R-fld8987S-3" edge="1">
          <mxGeometry relative="1" as="geometry">
            <mxPoint x="423.1199999999999" y="162" as="sourcePoint" />
            <Array as="points">
              <mxPoint x="423" y="189" />
            </Array>
          </mxGeometry>
        </mxCell>
        <mxCell id="0GrLM-0Wt3R-fld8987S-2" value="" style="ellipse;html=1;shape=startState;fillColor=#000000;strokeColor=#ff0000;" parent="1" vertex="1">
          <mxGeometry x="408.12" y="18" width="30" height="30" as="geometry" />
        </mxCell>
        <mxCell id="YUT999O9p-wqD0FR052m-3" value="" style="edgeStyle=orthogonalEdgeStyle;rounded=0;orthogonalLoop=1;jettySize=auto;html=1;" parent="1" source="0GrLM-0Wt3R-fld8987S-3" target="YUT999O9p-wqD0FR052m-2" edge="1">
          <mxGeometry relative="1" as="geometry" />
        </mxCell>
        <mxCell id="0GrLM-0Wt3R-fld8987S-3" value="انتخاب گزینه درخواست ها" style="rounded=1;whiteSpace=wrap;html=1;fillColor=#fff2cc;strokeColor=#d6b656;" parent="1" vertex="1">
          <mxGeometry x="363.12" y="216" width="120" height="60" as="geometry" />
        </mxCell>
        <mxCell id="YUT999O9p-wqD0FR052m-5" value="" style="edgeStyle=orthogonalEdgeStyle;rounded=0;orthogonalLoop=1;jettySize=auto;html=1;" parent="1" source="YUT999O9p-wqD0FR052m-2" target="YUT999O9p-wqD0FR052m-4" edge="1">
          <mxGeometry relative="1" as="geometry" />
        </mxCell>
        <mxCell id="YUT999O9p-wqD0FR052m-2" value="انتخاب درخواست موردنظر" style="rounded=1;whiteSpace=wrap;html=1;fillColor=#fff2cc;strokeColor=#d6b656;" parent="1" vertex="1">
          <mxGeometry x="363.12" y="356" width="120" height="60" as="geometry" />
        </mxCell>
        <mxCell id="z_w1srjm0N2SaW6AXXTy-2" value="" style="edgeStyle=orthogonalEdgeStyle;rounded=0;orthogonalLoop=1;jettySize=auto;html=1;" parent="1" source="YUT999O9p-wqD0FR052m-4" target="z_w1srjm0N2SaW6AXXTy-1" edge="1">
          <mxGeometry relative="1" as="geometry" />
        </mxCell>
        <mxCell id="YUT999O9p-wqD0FR052m-4" value="مشاهده پروفایل پزشک" style="rounded=1;whiteSpace=wrap;html=1;fillColor=#fff2cc;strokeColor=#d6b656;" parent="1" vertex="1">
          <mxGeometry x="363.12" y="480" width="120" height="60" as="geometry" />
        </mxCell>
        <mxCell id="z_w1srjm0N2SaW6AXXTy-3" style="edgeStyle=orthogonalEdgeStyle;rounded=0;orthogonalLoop=1;jettySize=auto;html=1;entryX=1;entryY=0.5;entryDx=0;entryDy=0;exitX=1;exitY=0.5;exitDx=0;exitDy=0;" parent="1" source="z_w1srjm0N2SaW6AXXTy-1" target="0GrLM-0Wt3R-fld8987S-3" edge="1">
          <mxGeometry relative="1" as="geometry">
            <Array as="points">
              <mxPoint x="549" y="621" />
              <mxPoint x="549" y="246" />
            </Array>
            <mxPoint x="512" y="621" as="sourcePoint" />
          </mxGeometry>
        </mxCell>
        <mxCell id="z_w1srjm0N2SaW6AXXTy-4" value="رد" style="edgeLabel;html=1;align=center;verticalAlign=middle;resizable=0;points=[];" parent="z_w1srjm0N2SaW6AXXTy-3" vertex="1" connectable="0">
          <mxGeometry x="-0.3386" y="-2" relative="1" as="geometry">
            <mxPoint as="offset" />
          </mxGeometry>
        </mxCell>
        <mxCell id="z_w1srjm0N2SaW6AXXTy-12" value="" style="edgeStyle=orthogonalEdgeStyle;rounded=0;orthogonalLoop=1;jettySize=auto;html=1;" parent="1" source="z_w1srjm0N2SaW6AXXTy-1" target="z_w1srjm0N2SaW6AXXTy-10" edge="1">
          <mxGeometry relative="1" as="geometry" />
        </mxCell>
        <mxCell id="z_w1srjm0N2SaW6AXXTy-13" value="قبول" style="edgeLabel;html=1;align=center;verticalAlign=middle;resizable=0;points=[];" parent="z_w1srjm0N2SaW6AXXTy-12" vertex="1" connectable="0">
          <mxGeometry x="-0.2979" relative="1" as="geometry">
            <mxPoint as="offset" />
          </mxGeometry>
        </mxCell>
        <mxCell id="z_w1srjm0N2SaW6AXXTy-1" value="ارزیابی درخواست" style="rhombus;whiteSpace=wrap;html=1;fillColor=#dae8fc;strokeColor=#6c8ebf;" parent="1" vertex="1">
          <mxGeometry x="338.62" y="581" width="169" height="80" as="geometry" />
        </mxCell>
        <mxCell id="z_w1srjm0N2SaW6AXXTy-10" value="اضافه شدن پزشک وبیمارانش به پروفایل بهیار" style="rounded=1;whiteSpace=wrap;html=1;fillColor=#fff2cc;strokeColor=#d6b656;" parent="1" vertex="1">
          <mxGeometry x="363.12" y="722" width="120" height="60" as="geometry" />
        </mxCell>
        <mxCell id="JArLmHxxQ1WXDEWy4zBN-1" value="&lt;font style=&quot;font-size: 41px;&quot; face=&quot;Tahoma&quot; color=&quot;#ff2e9d&quot;&gt;پنل بهیار&lt;/font&gt;&lt;font style=&quot;font-size: 41px;&quot; face=&quot;_kxpbe5iIvoVPWevJDPW&quot;&gt;&lt;br&gt;&lt;/font&gt;" style="text;html=1;align=center;verticalAlign=middle;resizable=0;points=[];autosize=1;strokeColor=none;fillColor=none;" parent="1" vertex="1">
          <mxGeometry x="645" y="24" width="135" height="61" as="geometry" />
        </mxCell>
        <mxCell id="5oJXywQ8RLz07vJnqFGC-1" value="" style="edgeStyle=orthogonalEdgeStyle;rounded=0;orthogonalLoop=1;jettySize=auto;html=1;" parent="1" edge="1">
          <mxGeometry relative="1" as="geometry">
            <mxPoint x="422.84000000000003" y="45" as="sourcePoint" />
            <mxPoint x="422.84000000000003" y="99" as="targetPoint" />
          </mxGeometry>
        </mxCell>
        <mxCell id="5oJXywQ8RLz07vJnqFGC-2" value="ورود به پنل بهیار" style="rounded=1;whiteSpace=wrap;html=1;fillColor=#fff2cc;strokeColor=#d6b656;" parent="1" vertex="1">
          <mxGeometry x="363.12" y="99" width="120" height="60" as="geometry" />
        </mxCell>
        <mxCell id="DsIzCdsNwsYgnwY3mfFi-1" value="&lt;font style=&quot;font-size: 30px;&quot; color=&quot;#ff2e9d&quot; face=&quot;Tahoma&quot;&gt;چک کردن درخواست‌ها&lt;/font&gt;" style="text;html=1;align=center;verticalAlign=middle;resizable=0;points=[];autosize=1;strokeColor=none;fillColor=none;" vertex="1" parent="1">
          <mxGeometry x="23" y="30" width="298" height="48" as="geometry" />
        </mxCell>
      </root>
    </mxGraphModel>
  </diagram>
  <diagram id="e3KOkIOPjiXNjXyj3YwB" name="پاسخ استعلام">
    <mxGraphModel dx="1434" dy="820" grid="0" gridSize="10" guides="1" tooltips="1" connect="1" arrows="1" fold="1" page="1" pageScale="1" pageWidth="850" pageHeight="1100" math="0" shadow="0">
      <root>
        <mxCell id="0" />
        <mxCell id="1" parent="0" />
        <mxCell id="DsUI9rDGzcrobNVuDyx_-1" style="edgeStyle=orthogonalEdgeStyle;rounded=0;orthogonalLoop=1;jettySize=auto;html=1;entryX=0.5;entryY=0;entryDx=0;entryDy=0;" parent="1" source="DsUI9rDGzcrobNVuDyx_-2" target="DsUI9rDGzcrobNVuDyx_-3" edge="1">
          <mxGeometry relative="1" as="geometry" />
        </mxCell>
        <mxCell id="DsUI9rDGzcrobNVuDyx_-2" value="" style="ellipse;html=1;shape=startState;fillColor=#000000;strokeColor=#ff0000;" parent="1" vertex="1">
          <mxGeometry x="408.12" y="18" width="30" height="30" as="geometry" />
        </mxCell>
        <mxCell id="XpKgbsXir7_ex8kBwe-l-4" style="edgeStyle=orthogonalEdgeStyle;rounded=0;orthogonalLoop=1;jettySize=auto;html=1;entryX=0.5;entryY=0;entryDx=0;entryDy=0;" parent="1" source="DsUI9rDGzcrobNVuDyx_-3" target="XpKgbsXir7_ex8kBwe-l-1" edge="1">
          <mxGeometry relative="1" as="geometry" />
        </mxCell>
        <mxCell id="DsUI9rDGzcrobNVuDyx_-3" value="ورود به پنل داروخانه" style="rounded=1;whiteSpace=wrap;html=1;fillColor=#fff2cc;strokeColor=#d6b656;" parent="1" vertex="1">
          <mxGeometry x="363.12" y="102" width="120" height="60" as="geometry" />
        </mxCell>
        <mxCell id="Kk-oaTG6EkIJZp4oO9BD-1" value="&lt;font style=&quot;font-size: 41px;&quot; face=&quot;Tahoma&quot; color=&quot;#ff2e9d&quot;&gt;پنل داروخانه&lt;/font&gt;&lt;font style=&quot;font-size: 41px;&quot; face=&quot;_kxpbe5iIvoVPWevJDPW&quot;&gt;&lt;br&gt;&lt;/font&gt;" style="text;html=1;align=center;verticalAlign=middle;resizable=0;points=[];autosize=1;strokeColor=none;fillColor=none;" parent="1" vertex="1">
          <mxGeometry x="620" y="24" width="186" height="61" as="geometry" />
        </mxCell>
        <mxCell id="XpKgbsXir7_ex8kBwe-l-5" style="edgeStyle=orthogonalEdgeStyle;rounded=0;orthogonalLoop=1;jettySize=auto;html=1;entryX=0.5;entryY=0;entryDx=0;entryDy=0;" parent="1" source="XpKgbsXir7_ex8kBwe-l-1" target="XpKgbsXir7_ex8kBwe-l-2" edge="1">
          <mxGeometry relative="1" as="geometry" />
        </mxCell>
        <mxCell id="XpKgbsXir7_ex8kBwe-l-1" value="انتخاب گزینه درخواست‌ها" style="rounded=1;whiteSpace=wrap;html=1;fillColor=#fff2cc;strokeColor=#d6b656;" parent="1" vertex="1">
          <mxGeometry x="363.12" y="216" width="120" height="60" as="geometry" />
        </mxCell>
        <mxCell id="XpKgbsXir7_ex8kBwe-l-6" style="edgeStyle=orthogonalEdgeStyle;rounded=0;orthogonalLoop=1;jettySize=auto;html=1;entryX=0.5;entryY=0;entryDx=0;entryDy=0;" parent="1" source="XpKgbsXir7_ex8kBwe-l-2" target="XpKgbsXir7_ex8kBwe-l-3" edge="1">
          <mxGeometry relative="1" as="geometry" />
        </mxCell>
        <mxCell id="XpKgbsXir7_ex8kBwe-l-2" value="انتخاب یکی از درخواست‌ها" style="rounded=1;whiteSpace=wrap;html=1;fillColor=#fff2cc;strokeColor=#d6b656;" parent="1" vertex="1">
          <mxGeometry x="363.12" y="330" width="120" height="60" as="geometry" />
        </mxCell>
        <mxCell id="XpKgbsXir7_ex8kBwe-l-3" value="ثبت موجودی هر یک از اقلام" style="rounded=1;whiteSpace=wrap;html=1;fillColor=#fff2cc;strokeColor=#d6b656;" parent="1" vertex="1">
          <mxGeometry x="363.12" y="444" width="120" height="60" as="geometry" />
        </mxCell>
        <mxCell id="nmnpwl2oG21XFVHk6CDQ-1" value="&lt;font style=&quot;font-size: 30px;&quot; color=&quot;#ff2e9d&quot; face=&quot;Tahoma&quot;&gt;پاسخ استعلام&lt;/font&gt;" style="text;html=1;align=center;verticalAlign=middle;resizable=0;points=[];autosize=1;strokeColor=none;fillColor=none;" vertex="1" parent="1">
          <mxGeometry x="74" y="30" width="196" height="48" as="geometry" />
        </mxCell>
      </root>
    </mxGraphModel>
  </diagram>
</mxfile>
